<?xml version="1.0" encoding="UTF-8" standalone="no"?>
<!-- Created with Inkscape (http://www.inkscape.org/) -->

<svg
   xmlns:dc="http://purl.org/dc/elements/1.1/"
   xmlns:cc="http://creativecommons.org/ns#"
   xmlns:rdf="http://www.w3.org/1999/02/22-rdf-syntax-ns#"
   xmlns:svg="http://www.w3.org/2000/svg"
   xmlns="http://www.w3.org/2000/svg"
   xmlns:xlink="http://www.w3.org/1999/xlink"
   xmlns:sodipodi="http://sodipodi.sourceforge.net/DTD/sodipodi-0.dtd"
   xmlns:inkscape="http://www.inkscape.org/namespaces/inkscape"
   id="svg11037"
   height="96"
   width="96"
   version="1.1"
   inkscape:version="0.48.5 r10040"
   sodipodi:docname="evernote.svg">
  <sodipodi:namedview
     pagecolor="#ffffff"
     bordercolor="#666666"
     borderopacity="1"
     objecttolerance="10"
     gridtolerance="10"
     guidetolerance="10"
     inkscape:pageopacity="0"
     inkscape:pageshadow="2"
     inkscape:window-width="1366"
     inkscape:window-height="713"
     id="namedview15"
     showgrid="false"
     inkscape:zoom="4.9166666"
     inkscape:cx="48.195319"
     inkscape:cy="43.726221"
     inkscape:window-x="0"
     inkscape:window-y="24"
     inkscape:window-maximized="1"
     inkscape:current-layer="layer1" />
  <defs
     id="defs11039">
    <linearGradient
       id="linearGradient11642"
       y2="1046.1"
       gradientUnits="userSpaceOnUse"
       y1="962.62"
       gradientTransform="matrix(1.15,0,0,1.15,-7.1999,-150.65)"
       x2="48"
       x1="48"
       spreadMethod="pad"
       xlink:href="#linearGradient11642-1">
      <stop
         id="stop3624"
         style="stop-color:#d6d6d6"
         offset="0" />
      <stop
         id="stop3626"
         style="stop-color:#eaeaea"
         offset="1" />
    </linearGradient>
    <clipPath
       id="clipPath3009"
       clipPathUnits="userSpaceOnUse">
      <path
         id="path3011"
         style="opacity:.15;fill:#fff"
         d="m-2 956.36h-96v33.562l96 25.687v-59.25z" />
    </clipPath>
    <filter
       id="filter4314"
       color-interpolation-filters="sRGB">
      <feGaussianBlur
         id="feGaussianBlur4316"
         stdDeviation="0.82668854" />
    </filter>
    <linearGradient
       id="linearGradient4281"
       y2="112"
       spreadMethod="reflect"
       gradientUnits="userSpaceOnUse"
       x2="48"
       y1="64"
       x1="48">
      <stop
         id="stop4277"
         style="stop-color:#e8f8c8"
         offset="0" />
      <stop
         id="stop4279"
         style="stop-color:#e8f8c8;stop-opacity:0"
         offset="1" />
    </linearGradient>
    <filter
       id="filter4271"
       color-interpolation-filters="sRGB">
      <feGaussianBlur
         id="feGaussianBlur4273"
         stdDeviation="0.33067541" />
    </filter>
    <linearGradient
       id="linearGradient4202"
       y2="20"
       xlink:href="#linearGradient4171"
       gradientUnits="userSpaceOnUse"
       x2="25"
       y1="26"
       x1="32" />
    <linearGradient
       id="linearGradient4171">
      <stop
         id="stop4173"
         style="stop-color:#8c8c8c"
         offset="0" />
      <stop
         id="stop4175"
         style="stop-color:#303032"
         offset="1" />
    </linearGradient>
    <radialGradient
       id="radialGradient4191"
       xlink:href="#linearGradient4171"
       gradientUnits="userSpaceOnUse"
       cy="50.518002"
       cx="56"
       gradientTransform="matrix(1.5937,0,0,1.2949,-33.245,-14.414)"
       r="30.118999" />
    <linearGradient
       id="linearGradient3070">
      <stop
         id="stop3072"
         style="stop-color:#8c8c8c"
         offset="0" />
      <stop
         id="stop3074"
         style="stop-color:#303032"
         offset="1" />
    </linearGradient>
    <linearGradient
       inkscape:collect="always"
       xlink:href="#linearGradient4281"
       id="linearGradient3094"
       gradientUnits="userSpaceOnUse"
       spreadMethod="reflect"
       x1="48"
       y1="64"
       x2="48"
       y2="112" />
    <linearGradient
       inkscape:collect="always"
       xlink:href="#linearGradient4171"
       id="linearGradient3096"
       gradientUnits="userSpaceOnUse"
       x1="32"
       y1="26"
       x2="25"
       y2="20" />
    <radialGradient
       inkscape:collect="always"
       xlink:href="#linearGradient4171"
       id="radialGradient3098"
       gradientUnits="userSpaceOnUse"
       gradientTransform="matrix(1.5937,0,0,1.2949,-33.245,-14.414)"
       cx="56"
       cy="50.518002"
       r="30.118999" />
    <linearGradient
       id="linearGradient11642-1"
       y2="1046.1"
       gradientUnits="userSpaceOnUse"
       y1="962.62"
       gradientTransform="matrix(1.15,0,0,1.15,-7.1999,-150.65)"
       x2="48"
       x1="48">
      <stop
         id="stop3702"
         style="stop-color:#5eb71f"
         offset="0" />
      <stop
         id="stop3704"
         style="stop-color:#4e9425"
         offset="1" />
    </linearGradient>
    <linearGradient
       y2="1046.1"
       x2="48"
       y1="962.62"
       x1="48"
       gradientTransform="matrix(1.15,0,0,1.15,66.63061,-156.14151)"
       gradientUnits="userSpaceOnUse"
       id="linearGradient3099"
       xlink:href="#linearGradient11642-1"
       inkscape:collect="always" />
    <linearGradient
       inkscape:collect="always"
       xlink:href="#linearGradient11642-1"
       id="linearGradient3794"
       x1="2"
       y1="1004.36"
       x2="94"
       y2="1004.36"
       gradientUnits="userSpaceOnUse" />
  </defs>
  <metadata
     id="metadata11042">
    <rdf:RDF>
      <cc:Work
         rdf:about="">
        <dc:format>image/svg+xml</dc:format>
        <dc:type
           rdf:resource="http://purl.org/dc/dcmitype/StillImage" />
        <dc:title />
      </cc:Work>
    </rdf:RDF>
  </metadata>
  <g
     id="layer1"
     transform="translate(0 -956.36)">
    <rect
       id="rect3867"
       style="fill:url(#linearGradient3794);fill-opacity:1.0"
       rx="25"
       ry="25"
       height="92"
       width="92"
       y="958.36"
       x="2" />
    <g
       transform="translate(9.4215826e-8,956.36)"
       id="layer4">
      <path
         inkscape:connector-curvature="0"
         id="path4318"
         style="opacity:0.1"
         d="m 41.531,11.5 c -1.5941,0.05066 -2.8799,0.23247 -3.5,0.40625 -1.3139,0.36723 -2.7843,1.1215 -3.5938,2.2812 -0.54284,0.77466 -0.87227,1.7697 -0.875,3.1562 0,0.78472 0.01126,2.6076 0.03125,4.25 0.0199,1.6475 0.03125,3.1462 0.03125,3.1562 -9.34e-4,1.4668 -1.183,2.6544 -2.6562,2.6562 h -6.75 c -1.4416,0 -2.5336,0.24275 -3.375,0.625 -0.84268,0.38262 -1.4528,0.88977 -1.9062,1.5 -0.90262,1.2118 -1.0662,2.6928 -1.0625,4.2188 0,0 0.01204,1.2739 0.3125,3.6875 0.24982,1.8675 2.2951,14.907 4.2188,18.875 0.74588,1.5437 1.2222,2.1945 2.6875,2.875 3.2648,1.3978 10.724,2.9297 14.219,3.375 3.4888,0.44641 5.695,1.3924 7,-1.3438 0.0046,-0.0068 0.24018,-0.66763 0.59375,-1.6562 1.133,-3.4331 1.3125,-6.4831 1.3125,-8.6875 0,-0.22413 0.3125,-0.23444 0.3125,0 0,1.5563 -0.28512,7.0538 3.875,8.5312 1.6423,0.58242 5.0383,1.0943 8.5,1.5 3.1301,0.35966 5.4062,1.5946 5.4062,9.625 0,4.8857 -1.0417,5.5625 -6.4062,5.5625 -4.3486,0 -6,0.11108 -6,-3.3438 0,-2.7922 2.7658,-2.5 4.8125,-2.5 0.91417,0 0.25,-0.68354 0.25,-2.4062 0,-1.7136 1.0762,-2.6937 0.0625,-2.7188 -7.0775,-0.19472 -11.25,-0.0075 -11.25,8.8438 0,8.0354 3.0802,9.5312 13.125,9.5312 7.8757,0 10.654,-0.25362 13.906,-10.344 0.64373,-1.9919 2.2144,-8.0748 3.1562,-18.281 0.59558,-6.4534 -0.58238,-25.928 -1.5,-30.844 -0.53676,-2.8733 -2.2368,-4.3183 -3.7812,-4.875 -1.6664,-0.60228 -5.0359,-1.2184 -9.2812,-1.7188 -3.4155,-0.40222 -7.4501,-0.35621 -9.875,-0.28125 -0.29102,-1.9934 -1.6855,-3.807 -3.25,-4.4375 -2.6052,-1.0486 -6.0932,-1.3032 -8.75,-1.2188 z m -9.25,1.9375 c -0.02588,0.0044 -0.06805,0.0054 -0.09375,0.03125 l -13.125,13.031 c -0.02569,0.02112 -0.05512,0.03432 -0.0625,0.0625 0.27154,-0.13441 0.66625,-0.32066 0.71875,-0.34375 1.1434,-0.51591 2.5278,-0.78125 4.1875,-0.78125 h 6.75 c 0.38721,0 0.68675,-0.30327 0.6875,-0.6875 0,-0.0025 -0.0625,-5.7957 -0.0625,-7.4062 V 17.3123 c 0,-1.3227 0.26648,-2.4711 0.75,-3.4375 l 0.25,-0.4375 z m 31.125,27.969 c 0.16538,-0.01271 0.34998,-0.0064 0.53125,0 3.2106,0.11045 3.6448,3.1321 3.6562,5.1875 -1.3537,-0.60365 -3.0184,-0.99834 -4.8438,-1.0625 -0.97299,-0.03402 -1.9085,0.04726 -2.7812,0.1875 0.23026,-1.8596 0.95684,-4.1218 3.4375,-4.3125 z" />
      <path
         inkscape:connector-curvature="0"
         id="path4301"
         style="opacity:0.8;fill:#37820f;filter:url(#filter4314)"
         d="m 41.531,11.062 c -1.5941,0.05066 -2.8799,0.23247 -3.5,0.40625 -1.3139,0.36723 -2.7843,1.1215 -3.5938,2.2812 -0.54284,0.77466 -0.87227,1.7697 -0.875,3.1562 0,0.78472 0.01126,2.6076 0.03125,4.25 0.0199,1.6475 0.03125,3.1462 0.03125,3.1562 -9.34e-4,1.4668 -1.183,2.6544 -2.6562,2.6562 h -6.75 c -1.4416,0 -2.5336,0.24275 -3.375,0.625 -0.84268,0.38262 -1.4528,0.88977 -1.9062,1.5 -0.90262,1.2118 -1.0662,2.6928 -1.0625,4.2188 0,0 0.01204,1.2739 0.3125,3.6875 0.24982,1.8675 2.2951,14.907 4.2188,18.875 0.74588,1.5437 1.2222,2.1945 2.6875,2.875 3.2648,1.3978 10.724,2.9297 14.219,3.375 3.4888,0.44641 5.695,1.3924 7,-1.3438 0.0046,-0.0068 0.24018,-0.66763 0.59375,-1.6562 1.133,-3.4331 1.3125,-6.4831 1.3125,-8.6875 0,-0.22413 0.3125,-0.23444 0.3125,0 0,1.5563 -0.28512,7.0538 3.875,8.5312 1.6423,0.58242 5.0383,1.0943 8.5,1.5 3.1301,0.35966 5.4062,1.5946 5.4062,9.625 0,4.8857 -1.0417,5.5625 -6.4062,5.5625 -4.3486,0 -6,0.11108 -6,-3.3438 0,-2.7922 2.7658,-2.5 4.8125,-2.5 0.91417,0 0.25,-0.68354 0.25,-2.4062 0,-1.7136 1.0762,-2.6937 0.0625,-2.7188 -7.0775,-0.19472 -11.25,-0.0075 -11.25,8.8438 0,8.0354 3.0802,9.5312 13.125,9.5312 7.8757,0 10.654,-0.25362 13.906,-10.344 0.64373,-1.9919 2.2144,-8.0748 3.1562,-18.281 0.59558,-6.4534 -0.58238,-25.928 -1.5,-30.844 -0.53676,-2.8733 -2.2368,-4.3183 -3.7812,-4.875 -1.665,-0.6 -5.034,-1.216 -9.28,-1.716 -3.4155,-0.40222 -7.4501,-0.35621 -9.875,-0.28125 -0.29102,-1.9934 -1.6855,-3.807 -3.25,-4.4375 -2.6052,-1.0486 -6.0932,-1.3032 -8.75,-1.2188 z M 32.281,13 c -0.02588,0.0044 -0.06805,0.0054 -0.09375,0.03125 l -13.125,13.031 c -0.025,0.022 -0.055,0.035 -0.062,0.063 0.272,-0.134 0.666,-0.321 0.719,-0.344 1.143,-0.516 2.528,-0.781 4.187,-0.781 h 6.75 c 0.38721,0 0.68675,-0.30327 0.6875,-0.6875 0,-0.0025 -0.0625,-5.7957 -0.0625,-7.4062 V 16.8753 c 0,-1.3227 0.26648,-2.4711 0.75,-3.4375 l 0.25,-0.438 z m 31.125,27.969 c 0.16538,-0.01271 0.34998,-0.0064 0.53125,0 3.2106,0.11045 3.6448,3.1321 3.6562,5.1875 -1.3537,-0.60365 -3.0184,-0.99834 -4.8438,-1.0625 -0.97299,-0.03402 -1.9085,0.04726 -2.7812,0.1875 0.23026,-1.8596 0.95684,-4.1218 3.4375,-4.3125 z" />
      <path
         inkscape:connector-curvature="0"
         id="path4254"
         style="fill:url(#linearGradient3094);filter:url(#filter4271)"
         d="m 41.531,13.062 c -1.5941,0.05066 -2.8799,0.23247 -3.5,0.40625 -1.3139,0.36723 -2.7843,1.1215 -3.5938,2.2812 -0.54284,0.77466 -0.87227,1.7697 -0.875,3.1562 0,0.78472 0.01126,2.6076 0.03125,4.25 0.0199,1.6475 0.03125,3.1462 0.03125,3.1562 -9.34e-4,1.4668 -1.183,2.6544 -2.6562,2.6562 h -6.75 c -1.4416,0 -2.5336,0.24275 -3.375,0.625 -0.84268,0.38262 -1.4528,0.88977 -1.9062,1.5 -0.90262,1.2118 -1.0662,2.6928 -1.0625,4.2188 0,0 0.01204,1.2739 0.3125,3.6875 0.24982,1.8675 2.2951,14.907 4.2188,18.875 0.74588,1.5437 1.2222,2.1945 2.6875,2.875 3.2648,1.3978 10.724,2.9297 14.219,3.375 3.4888,0.44641 5.695,1.3924 7,-1.3438 0.0046,-0.0068 0.24018,-0.66763 0.59375,-1.6562 1.133,-3.4331 1.3125,-6.4831 1.3125,-8.6875 0,-0.22413 0.3125,-0.23444 0.3125,0 0,1.5563 -0.28512,7.0538 3.875,8.5312 1.6423,0.58242 5.0383,1.0943 8.5,1.5 3.1301,0.35966 5.4062,1.5946 5.4062,9.625 0,4.8857 -1.0417,5.5625 -6.4062,5.5625 -4.3486,0 -6,0.11108 -6,-3.3438 0,-2.7922 2.7658,-2.5 4.8125,-2.5 0.91417,0 0.25,-0.68354 0.25,-2.4062 0,-1.7136 1.0762,-2.6937 0.0625,-2.7188 -7.0775,-0.19472 -11.25,-0.0075 -11.25,8.8438 0,8.0354 3.0802,9.5312 13.125,9.5312 7.8757,0 10.654,-0.25362 13.906,-10.344 0.64373,-1.9919 2.2144,-8.0748 3.1562,-18.281 0.59558,-6.4534 -0.58238,-25.928 -1.5,-30.844 -0.53676,-2.8733 -2.2368,-4.3183 -3.7812,-4.875 -1.665,-0.6 -5.034,-1.216 -9.28,-1.716 -3.4155,-0.40222 -7.4501,-0.35621 -9.875,-0.28125 -0.29102,-1.9934 -1.6855,-3.807 -3.25,-4.4375 -2.6052,-1.0486 -6.0932,-1.3032 -8.75,-1.2188 z M 32.281,15 c -0.02588,0.0044 -0.06805,0.0054 -0.09375,0.03125 l -13.125,13.031 c -0.025,0.022 -0.055,0.035 -0.062,0.063 0.272,-0.134 0.666,-0.321 0.719,-0.344 1.143,-0.516 2.528,-0.781 4.187,-0.781 h 6.75 c 0.38721,0 0.68675,-0.30327 0.6875,-0.6875 0,-0.0025 -0.0625,-5.7957 -0.0625,-7.4062 V 18.8753 c 0,-1.3227 0.26648,-2.4711 0.75,-3.4375 l 0.25,-0.438 z m 31.125,27.969 c 0.16538,-0.01271 0.34998,-0.0064 0.53125,0 3.2106,0.11045 3.6448,3.1321 3.6562,5.1875 -1.3537,-0.60365 -3.0184,-0.99834 -4.8438,-1.0625 -0.97299,-0.03402 -1.9085,0.04726 -2.7812,0.1875 0.23026,-1.8596 0.95684,-4.1218 3.4375,-4.3125 z" />
      <path
         inkscape:connector-curvature="0"
         id="path4185"
         style="fill:url(#linearGradient3096)"
         d="m 23.898,25.997 h 0.0046 6.7572 c 0.38721,0 0.69859,-0.31535 0.69934,-0.69958 0,-0.0025 -0.08203,-5.7939 -0.08203,-7.4044 v -0.01911 c 0,-1.3227 0.27761,-2.4759 0.76113,-3.4423 l 0.23109,-0.434 c -0.02588,0.0044 -0.05175,0.01699 -0.07745,0.04282 l -13.13,13.019 c -0.02569,0.02112 -0.04176,0.04852 -0.04914,0.0767 0.27154,-0.13441 0.64286,-0.31808 0.69536,-0.34117 1.1434,-0.51591 2.5298,-0.79862 4.1894,-0.79862 z" />
      <path
         inkscape:connector-curvature="0"
         id="path4183"
         style="fill:url(#radialGradient3098)"
         d="m 41.531,12.062 c -1.5941,0.05066 -2.8799,0.23247 -3.5,0.40625 -1.3139,0.36723 -2.7843,1.1215 -3.5938,2.2812 -0.54284,0.77466 -0.87227,1.7697 -0.875,3.1562 0,0.78472 0.01126,2.6076 0.03125,4.25 0.0199,1.6475 0.03125,3.1462 0.03125,3.1562 -9.34e-4,1.4668 -1.183,2.6544 -2.6562,2.6562 h -6.75 c -1.4416,0 -2.5336,0.24275 -3.375,0.625 -0.84268,0.38262 -1.4528,0.88977 -1.9062,1.5 -0.90262,1.2118 -1.0662,2.6928 -1.0625,4.2188 0,0 0.01204,1.2739 0.3125,3.6875 0.24982,1.8675 2.2951,14.907 4.2188,18.875 0.74588,1.5437 1.2222,2.1945 2.6875,2.875 3.2648,1.3978 10.724,2.9297 14.219,3.375 3.4888,0.44641 5.695,1.3924 7,-1.3438 0.0046,-0.0068 0.24018,-0.66763 0.59375,-1.6562 1.133,-3.4331 1.3125,-6.4831 1.3125,-8.6875 0,-0.22413 0.3125,-0.23444 0.3125,0 0,1.5563 -0.28512,7.0538 3.875,8.5312 1.6423,0.58242 5.0383,1.0943 8.5,1.5 3.1301,0.35966 5.4062,1.5946 5.4062,9.625 0,4.8857 -1.0417,5.5625 -6.4062,5.5625 -4.3486,0 -6,0.11108 -6,-3.3438 0,-2.7922 2.7658,-2.5 4.8125,-2.5 0.91417,0 0.25,-0.68354 0.25,-2.4062 0,-1.7136 1.0762,-2.6937 0.0625,-2.7188 -7.0775,-0.19472 -11.25,-0.0075 -11.25,8.8438 0,8.0354 3.0802,9.5312 13.125,9.5312 7.8757,0 10.654,-0.25362 13.906,-10.344 0.64373,-1.9919 2.2144,-8.0748 3.1562,-18.281 0.59558,-6.4534 -0.58238,-25.928 -1.5,-30.844 -0.53676,-2.8733 -2.2368,-4.3183 -3.7812,-4.875 -1.665,-0.6 -5.034,-1.216 -9.28,-1.716 -3.4155,-0.40222 -7.4501,-0.35621 -9.875,-0.28125 -0.29102,-1.9934 -1.6855,-3.807 -3.25,-4.4375 -2.6052,-1.0486 -6.0932,-1.3032 -8.75,-1.2188 z m 21.875,29.906 c 0.16538,-0.01271 0.34998,-0.0064 0.53125,0 3.2106,0.11045 3.6448,3.1321 3.6562,5.1875 -1.3537,-0.60365 -3.0184,-0.99834 -4.8438,-1.0625 -0.97299,-0.03402 -1.9085,0.04726 -2.7812,0.1875 0.23026,-1.8596 0.95684,-4.1218 3.4375,-4.3125 z" />
      <path
         inkscape:connector-curvature="0"
         id="path4329"
         style="opacity:0.1"
         d="m 41.531,12.062 c -1.5941,0.05066 -2.8799,0.23247 -3.5,0.40625 -1.3139,0.36723 -2.7843,1.1215 -3.5938,2.2812 -0.54284,0.77466 -0.87227,1.7697 -0.875,3.1562 0,0.78472 0.01126,2.6076 0.03125,4.25 0.0199,1.6475 0.03125,3.1462 0.03125,3.1562 -9.34e-4,1.4668 -1.183,2.6544 -2.6562,2.6562 h -6.75 c -1.4416,0 -2.5336,0.24275 -3.375,0.625 -0.84268,0.38262 -1.4528,0.88977 -1.9062,1.5 -0.90262,1.2118 -1.0662,2.6928 -1.0625,4.2188 0,0 0.01204,1.2739 0.3125,3.6875 0.24982,1.8675 2.2951,14.907 4.2188,18.875 0.74588,1.5437 1.2222,2.1945 2.6875,2.875 3.2648,1.3978 10.724,2.9297 14.219,3.375 3.4888,0.44641 5.695,1.3924 7,-1.3438 0.0046,-0.0068 0.24018,-0.66763 0.59375,-1.6562 1.133,-3.4331 1.3125,-6.4831 1.3125,-8.6875 0,-0.22413 0.3125,-0.23444 0.3125,0 0,1.5563 -0.28512,7.0538 3.875,8.5312 1.6423,0.58242 5.0383,1.0943 8.5,1.5 3.1301,0.35966 5.4062,1.5946 5.4062,9.625 0,4.8857 -1.0417,5.5625 -6.4062,5.5625 -4.3486,0 -6,0.11108 -6,-3.3438 0,-2.7922 2.7658,-2.5 4.8125,-2.5 0.91417,0 0.25,-0.68354 0.25,-2.4062 0,-1.7136 1.0762,-2.6937 0.0625,-2.7188 -7.0775,-0.19472 -11.25,-0.0075 -11.25,8.8438 0,8.0354 3.0802,9.5312 13.125,9.5312 7.8757,0 10.654,-0.25362 13.906,-10.344 0.64373,-1.9919 2.2144,-8.0748 3.1562,-18.281 0.59558,-6.4534 -0.58238,-25.928 -1.5,-30.844 -0.53676,-2.8733 -2.2368,-4.3183 -3.7812,-4.875 -1.665,-0.6 -5.034,-1.216 -9.28,-1.716 -3.4155,-0.40222 -7.4501,-0.35621 -9.875,-0.28125 -0.29102,-1.9934 -1.6855,-3.807 -3.25,-4.4375 -2.6052,-1.0486 -6.0932,-1.3032 -8.75,-1.2188 z m 0.03125,0.96875 c 2.5674,-0.08158 5.968,0.19998 8.3438,1.1562 1.1486,0.46289 2.4174,2.0518 2.6562,3.6875 a 0.97709,0.97709 0 0 0 1,0.8125 c 2.4038,-0.07431 6.4006,-0.10951 9.7188,0.28125 4.2125,0.49651 7.5918,1.1247 9.0625,1.6562 1.2523,0.45142 2.677,1.5909 3.1562,4.1562 0.8599,4.6068 2.0682,24.406 1.5,30.562 -0.93596,10.143 -2.5172,16.182 -3.125,18.062 -1.6018,4.97 -3.0328,7.3071 -4.8125,8.4375 -1.7797,1.1304 -4.2289,1.25 -8.1562,1.25 -4.9739,0 -8.0934,-0.44519 -9.7812,-1.5938 -0.844,-0.574 -1.391,-1.295 -1.781,-2.406 -0.39,-1.112 -0.594,-2.616 -0.594,-4.563 0,-2.1361 0.25269,-3.69 0.6875,-4.7812 0.43481,-1.0912 1.0276,-1.7279 1.8125,-2.1875 1.4577,-0.85361 3.9359,-0.97046 7.0938,-0.90625 -0.146,0.447 -0.344,0.935 -0.344,1.75 0,0.73588 0.08785,1.1082 0.15625,1.4688 -0.88818,-0.01713 -1.8671,-0.10614 -2.875,0.1875 -0.60251,0.17553 -1.2399,0.50117 -1.6875,1.0625 -0.44762,0.56133 -0.65625,1.3282 -0.65625,2.1875 0,0.94154 0.08956,1.7304 0.40625,2.4062 0.31669,0.67588 0.90823,1.1923 1.5625,1.4688 1.3085,0.55285 2.834,0.4375 5,0.4375 2.7234,0 4.5433,-0.06681 5.8438,-1.1562 0.65024,-0.54472 1.0364,-1.3354 1.25,-2.2188 0.21359,-0.8833 0.28125,-1.9001 0.28125,-3.1562 0,-4.1075 -0.52968,-6.6133 -1.6875,-8.25 -1.158,-1.637 -2.898,-2.153 -4.563,-2.344 -3.44,-0.403 -6.9,-0.937 -8.312,-1.438 -1.714,-0.608 -2.472,-1.985 -2.875,-3.562 -0.404,-1.577 -0.344,-3.225 -0.344,-4.062 0,-0.27566 -0.11539,-0.6216 -0.34375,-0.84375 -0.22836,-0.22215 -0.53459,-0.31708 -0.8125,-0.3125 -0.55582,0.0092 -1.0938,0.59012 -1.0938,1.1562 0,2.1513 -0.19263,5.0762 -1.2812,8.375 -0.16962,0.47431 -0.30598,0.90736 -0.40625,1.1875 -0.04549,0.12709 -0.06665,0.20597 -0.09375,0.28125 -0.0037,0.01033 -0.02791,0.02199 -0.03125,0.03125 -0.0045,0.0078 -1.3e-5,0.03128 0,0.03125 a 0.97709,0.97709 0 0 0 0,0.03125 c -0.0039,0.0106 -0.0287,0.0243 -0.03125,0.03125 -0.0035,0.0088 1.15e-4,0.03095 0,0.03125 -0.51968,1.0556 -0.91693,1.1801 -1.8125,1.2188 -0.91958,0.03973 -2.3514,-0.26906 -4.1562,-0.5 -3.39,-0.432 -10.962,-2.025 -13.969,-3.312 -1.275,-0.598 -1.476,-0.933 -2.188,-2.406 -0.838,-1.729 -1.878,-6.004 -2.656,-9.969 -0.778,-3.965 -1.351,-7.711 -1.469,-8.594 -0.29565,-2.375 -0.3125,-3.5625 -0.3125,-3.5625 -0.0036,-1.4546 0.1664,-2.6737 0.875,-3.625 0.35784,-0.48152 0.82286,-0.89711 1.5312,-1.2188 0.69346,-0.31502 1.6368,-0.53125 2.9688,-0.53125 h 6.75 c 1.9976,-0.0025 3.6237,-1.6336 3.625,-3.625 0,-0.09322 3.51e-4,-0.04841 0,-0.09375 -3.51e-4,-0.04534 6.89e-4,-0.10353 0,-0.1875 -0.0014,-0.16795 0.0027,-0.39622 0,-0.6875 C 34.5872,23.75984 34.57122,22.98 34.56125,22.1549 34.54131,20.5168 34.53,18.6803 34.53,17.9049 c 0.0024,-1.2327 0.29495,-1.989 0.71875,-2.5938 0.60538,-0.86741 1.8694,-1.5815 3.0312,-1.9062 0.45268,-0.12686 1.7447,-0.32617 3.2812,-0.375 z m -9.281,0.969 c -0.02588,0.0044 -0.06805,0.0054 -0.09375,0.03125 l -13.125,13.031 c -0.025,0.022 -0.055,0.035 -0.062,0.063 0.272,-0.134 0.666,-0.321 0.719,-0.344 1.143,-0.516 2.528,-0.781 4.187,-0.781 h 6.75 c 0.38721,0 0.68675,-0.30327 0.6875,-0.6875 0,-0.0025 -0.0625,-5.7957 -0.0625,-7.4062 v -0.03125 c 0,-1.3227 0.26648,-2.4711 0.75,-3.4375 l 0.25,-0.438 z m -1.8125,3.0938 c -0.023,0.28 -0.156,0.489 -0.156,0.781 v 0.03125 c 0,1.5737 0.05811,6.7151 0.0625,7.125 h -6.4688 c -0.55774,0 -1.0518,0.06793 -1.5625,0.125 l 8.125,-8.0625 z m 32.876,23.906 c -1.5274,0.11743 -2.6669,0.94936 -3.3125,1.9688 -0.646,1.019 -0.907,2.181 -1.032,3.187 a 0.97709,0.97709 0 0 0 1.125,1.094 c 0.82311,-0.13227 1.6969,-0.21886 2.5938,-0.1875 1.7056,0.05995 3.2424,0.45317 4.4688,1 a 0.97709,0.97709 0 0 0 1.375,-0.90625 c -0.0061,-1.0939 -0.08928,-2.4867 -0.71875,-3.75 -0.62947,-1.2633 -1.9653,-2.3405 -3.875,-2.4062 -0.18202,-0.0064 -0.3796,-0.01886 -0.625,0 z m 0.0625,0.96875 c 0.16538,-0.01271 0.34998,-0.0064 0.53125,0 3.2106,0.11045 3.6448,3.1321 3.6562,5.1875 -1.3537,-0.60365 -3.0184,-0.99834 -4.8438,-1.0625 -0.97299,-0.03402 -1.9085,0.04726 -2.7812,0.1875 0.23026,-1.8596 0.95684,-4.1218 3.4375,-4.3125 z" />
      <path
         inkscape:connector-curvature="0"
         id="path4204"
         style="opacity:0.6"
         d="m 32.281,14 c -0.02588,0.0044 -0.06805,0.0054 -0.09375,0.03125 l -0.375,0.375 c -0.3336,0.84834 -0.53125,1.8174 -0.53125,2.9062 v 0.03125 c 0,0.10192 -4.69e-4,0.33585 0,0.46875 0.0084,-1.296 0.27425,-2.4241 0.75,-3.375 l 0.25,-0.437 z m -0.9375,10.781 c -0.01598,0.36974 -0.31054,0.65625 -0.6875,0.65625 h -6.75 c -1.5156,0 -2.7924,0.22495 -3.875,0.65625 l -0.969,0.969 c -0.025,0.022 -0.055,0.035 -0.062,0.063 0.272,-0.134 0.666,-0.321 0.719,-0.344 1.143,-0.516 2.528,-0.781 4.187,-0.781 h 6.75 c 0.38721,0 0.68675,-0.30327 0.6875,-0.6875 0,-1.79e-4 5.97e-4,-0.47517 0,-0.53125 z M 17.8745,34 c -0.0015,0.10538 -2.59e-4,0.20661 0,0.3125 0,0 0.01204,1.2739 0.3125,3.6875 0.24982,1.8675 2.2951,14.907 4.2188,18.875 0.74588,1.5437 1.2222,2.1945 2.6875,2.875 3.2648,1.3978 10.724,2.9297 14.219,3.375 3.4888,0.44641 5.695,1.3924 7,-1.3438 0.0046,-0.0068 0.24018,-0.66763 0.59375,-1.6562 0.93759,-2.8411 1.211,-5.3833 1.2812,-7.4375 -0.1036,1.9487 -0.43153,4.3002 -1.2812,6.875 -0.35357,0.98862 -0.58915,1.6494 -0.59375,1.6562 -1.305,2.7361 -3.5112,1.7902 -7,1.3438 -3.4952,-0.44528 -10.954,-1.9772 -14.219,-3.375 -1.4653,-0.68047 -1.9416,-1.3313 -2.6875,-2.875 -1.923,-3.968 -3.969,-17.008 -4.218,-18.875 -0.261,-2.093 -0.306,-3.146 -0.313,-3.438 z m 45.531,7.4062 c -2.4807,0.19071 -3.2072,2.4529 -3.4375,4.3125 0.03004,-0.0048 0.06356,0.0047 0.09375,0 0.3061,-1.7276 1.1055,-3.5779 3.3438,-3.75 0.16538,-0.01271 0.34998,-0.0064 0.53125,0 2.9326,0.10089 3.5316,2.6213 3.625,4.625 0.0087,0.0039 0.02257,-0.0039 0.03125,0 -0.01142,-2.0554 -0.44564,-5.077 -3.6562,-5.1875 -0.18127,-0.0064 -0.36587,-0.01271 -0.53125,0 z m -15.031,9.282 c -0.07813,0.0013 -0.15625,0.07543 -0.15625,0.1875 0,0.17098 0.0025,0.38156 0,0.5625 0,-0.22413 0.3125,-0.23444 0.3125,0 0.0012,-0.16801 0,-0.43967 0,-0.5625 0,-0.11722 -0.07813,-0.18879 -0.15625,-0.1875 z m 29.75,1.2188 c -0.023,1.159 -0.082,2.161 -0.156,2.968 -0.942,10.206 -2.513,16.289 -3.157,18.281 -3.251,10.09 -6.03,10.344 -13.906,10.344 -9.417,0 -12.719,-1.3084 -13.094,-8.0938 0.23092,7.2579 3.4312,8.6562 13.094,8.6562 7.8757,0 10.654,-0.25362 13.906,-10.344 0.64373,-1.9919 2.2144,-8.0748 3.1562,-18.281 0.08525,-0.92377 0.13771,-2.1548 0.15625,-3.5312 z m -29.562,0.75 c 0.03389,2.2147 0.39533,6.0878 3.8438,7.3125 1.6423,0.58242 5.0383,1.0943 8.5,1.5 2.9344,0.33718 5.1135,1.4337 5.375,8.1875 -0.16467,-7.2355 -2.3641,-8.404 -5.375,-8.75 -3.4617,-0.4057 -6.8577,-0.91758 -8.5,-1.5 -3.1201,-1.1081 -3.7289,-4.478 -3.8438,-6.75 z m 10.812,13.188 c -0.14233,0.46235 -0.40625,1.1432 -0.40625,2 0,0.10172 -0.0042,0.1867 0,0.28125 0.08562,-1.1999 0.62413,-1.9832 0.40625,-2.2812 z m -0.219,4.28 c -0.06629,0.091 -0.20896,0.125 -0.4375,0.125 -2.0467,0 -4.8125,-0.29224 -4.8125,2.5 0,0.0963 0.02866,0.15916 0.03125,0.25 0.20297,-2.4558 2.8147,-2.1875 4.7812,-2.1875 0.49569,0 0.51241,-0.22886 0.4375,-0.6875 z" />
      <path
         inkscape:connector-curvature="0"
         id="path4348"
         style="opacity:0.1;fill:#ffffff"
         d="m 41.562,13.031 c -1.5364,0.04883 -2.829,0.24826 -3.2812,0.375 -1.1615,0.32463 -2.4264,1.0396 -3.0312,1.9062 -0.42348,0.60434 -0.71632,1.3615 -0.71875,2.5938 0,0.08551 -2.72e-4,0.35911 0,0.46875 0.0077,-1.2123 0.29917,-1.9637 0.71875,-2.5625 0.60484,-0.86664 1.8698,-1.5816 3.0312,-1.9062 0.45223,-0.12674 1.7448,-0.32617 3.2812,-0.375 2.5672,-0.08157 5.9686,0.20022 8.3438,1.1562 1.1475,0.46244 2.4176,2.0527 2.6562,3.6875 a 0.97968,0.97968 0 0 0 1,0.8125 c 2.4037,-0.07431 6.4009,-0.10948 9.7188,0.28125 4.2124,0.4965 7.5923,1.1249 9.0625,1.6562 1.2515,0.45114 2.6772,1.5917 3.1562,4.1562 0.53734,2.8788 1.2091,11.698 1.5,19.406 -0.279,-7.828 -0.95,-16.963 -1.499,-19.907 -0.479,-2.564 -1.905,-3.705 -3.156,-4.156 -1.47,-0.531 -4.85,-1.16 -9.063,-1.656 -3.318,-0.391 -7.315,-0.356 -9.719,-0.281 a 0.97968,0.97968 0 0 1 -1,-0.8125 c -0.238,-1.636 -1.508,-3.226 -2.656,-3.688 -2.375,-0.957 -5.776,-1.238 -8.344,-1.157 z m -11.094,4.0625 -8.125,8.0625 c 0.19121,-0.02137 0.37178,-0.04222 0.5625,-0.0625 l 7.4375,-7.375 c 0.03412,-0.21433 0.10599,-0.39936 0.125,-0.625 z m 4.125,8.2188 c -0.0013,1.9927 -1.626,3.6225 -3.625,3.625 h -6.75 c -1.3316,0 -2.2757,0.24766 -2.9688,0.5625 -0.70803,0.32148 -1.1737,0.70632 -1.5312,1.1875 -0.61681,0.82807 -0.8025,1.8799 -0.84375,3.0938 0.07964,-1.0013 0.31269,-1.8808 0.84375,-2.5938 0.358,-0.482 0.824,-0.867 1.532,-1.188 0.69306,-0.31484 1.6371,-0.5625 2.9688,-0.5625 h 6.75 c 1.999,-0.0025 3.6237,-1.6323 3.625,-3.625 0,-0.09346 3.51e-4,-0.04841 0,-0.09375 -3.51e-4,-0.04534 6.89e-4,-0.10353 0,-0.1875 -4.38e-4,-0.05344 -2.69e-4,-0.15301 0,-0.21875 z m 24.438,21.187 c -0.007,0.051 -0.025,0.106 -0.031,0.156 a 0.97968,0.97968 0 0 0 1.125,1.094 c 0.82298,-0.13225 1.6971,-0.21885 2.5938,-0.1875 1.7053,0.05994 3.2428,0.45332 4.4688,1 a 0.97968,0.97968 0 0 0 1.375,-0.90625 c -6.5e-4,-0.11707 0.003,-0.25163 0,-0.375 a 0.97968,0.97968 0 0 1 -1.375,0.78125 c -1.226,-0.54668 -2.7635,-0.94006 -4.4688,-1 -0.897,-0.031 -1.771,0.056 -2.594,0.188 a 0.97968,0.97968 0 0 1 -1.094,-0.75 z m -2.9375,20.156 c -2.098,0.046 -3.751,0.267 -4.844,0.906 -0.784,0.46 -1.347,1.097 -1.781,2.188 -0.435,1.091 -0.719,2.645 -0.719,4.781 0,0.11053 -0.0013,0.20481 0,0.3125 0.01705,-2.0342 0.29768,-3.537 0.71875,-4.5938 0.43463,-1.0908 0.9968,-1.7281 1.7812,-2.1875 1.4316,-0.83828 3.8578,-0.96296 6.9375,-0.90625 0.05117,-0.16979 0.10739,-0.35025 0.15625,-0.5 -0.78944,-0.01605 -1.5508,-0.0153 -2.25,0 z m 1.906,1.969 c -0.0057,0.09198 0,0.17965 0,0.28125 0,0.42477 0.02461,0.71869 0.0625,0.96875 0.02979,7.14e-4 0.06416,-5.71e-4 0.09375,0 -0.06,-0.316 -0.138,-0.68 -0.156,-1.25 z m 9.25,4.1875 c -0.03579,0.52158 -0.11191,0.99567 -0.21875,1.4375 -0.21368,0.88365 -0.63052,1.6736 -1.2812,2.2188 -1.3015,1.0903 -3.1203,1.1562 -5.8438,1.1562 -2.166,0 -3.6905,0.11575 -5,-0.4375 -0.65474,-0.27662 -1.2456,-0.79234 -1.5625,-1.4688 -0.28818,-0.61504 -0.39048,-1.325 -0.40625,-2.1562 -0.0042,0.08379 0,0.16424 0,0.25 0,0.94175 0.08931,1.7298 0.40625,2.4062 0.31694,0.67641 0.90776,1.1921 1.5625,1.4688 1.3095,0.55325 2.834,0.4375 5,0.4375 2.7235,0 4.5423,-0.06598 5.8438,-1.1562 0.65073,-0.54513 1.0676,-1.3351 1.2812,-2.2188 0.13791,-0.57032 0.19068,-1.2278 0.21875,-1.9375 z" />
    </g>
  </g>
</svg>
