<?xml version="1.0" encoding="UTF-8" standalone="no"?>
<!-- Created with Inkscape (http://www.inkscape.org/) -->

<svg
   xmlns:dc="http://purl.org/dc/elements/1.1/"
   xmlns:cc="http://creativecommons.org/ns#"
   xmlns:rdf="http://www.w3.org/1999/02/22-rdf-syntax-ns#"
   xmlns:svg="http://www.w3.org/2000/svg"
   xmlns="http://www.w3.org/2000/svg"
   xmlns:xlink="http://www.w3.org/1999/xlink"
   xmlns:sodipodi="http://sodipodi.sourceforge.net/DTD/sodipodi-0.dtd"
   xmlns:inkscape="http://www.inkscape.org/namespaces/inkscape"
   id="svg11037"
   height="96"
   width="96"
   version="1.1"
   inkscape:version="0.48.5 r10040"
   sodipodi:docname="gmail.svg">
  <sodipodi:namedview
     pagecolor="#ffffff"
     bordercolor="#666666"
     borderopacity="1"
     objecttolerance="10"
     gridtolerance="10"
     guidetolerance="10"
     inkscape:pageopacity="0"
     inkscape:pageshadow="2"
     inkscape:window-width="1366"
     inkscape:window-height="713"
     id="namedview49"
     showgrid="false"
     inkscape:zoom="4.9166667"
     inkscape:cx="42.490124"
     inkscape:cy="43.71893"
     inkscape:window-x="0"
     inkscape:window-y="24"
     inkscape:window-maximized="1"
     inkscape:current-layer="g3254" />
  <defs
     id="defs11039">
    <linearGradient
       id="linearGradient3700">
      <stop
         id="stop3702"
         style="stop-color:#dcdcdc"
         offset="0" />
      <stop
         id="stop3704"
         style="stop-color:#f0f0f0"
         offset="1" />
    </linearGradient>
    <linearGradient
       id="linearGradient3641">
      <stop
         id="stop3643"
         offset="0" />
      <stop
         id="stop3645"
         style="stop-opacity:0"
         offset="1" />
    </linearGradient>
    <clipPath
       id="clipPath3696">
      <rect
         id="rect3698"
         style="fill:#f0f"
         rx="6"
         ry="6"
         height="84"
         width="84"
         y="6"
         x="106" />
    </clipPath>
    <filter
       id="filter3665"
       color-interpolation-filters="sRGB">
      <feGaussianBlur
         id="feGaussianBlur3667"
         stdDeviation="0.69" />
    </filter>
    <clipPath
       id="clipPath3703">
      <rect
         id="rect3705"
         style="fill:#f0f"
         rx="6"
         ry="6"
         height="84"
         width="84"
         y="6"
         x="106" />
    </clipPath>
    <filter
       id="filter3649"
       color-interpolation-filters="sRGB">
      <feGaussianBlur
         id="feGaussianBlur3651"
         stdDeviation="1.38" />
    </filter>
    <linearGradient
       id="linearGradient3264"
       y2="5.9877"
       xlink:href="#linearGradient3700"
       gradientUnits="userSpaceOnUse"
       x2="48"
       y1="90"
       x1="48" />
    <linearGradient
       id="linearGradient3266"
       y2="80"
       xlink:href="#linearGradient3641"
       gradientUnits="userSpaceOnUse"
       x2="48"
       gradientTransform="translate(100)"
       y1="32"
       x1="48" />
    <linearGradient
       id="linearGradient3268"
       y2="36"
       gradientUnits="userSpaceOnUse"
       x2="48"
       y1="88"
       x1="48">
      <stop
         id="stop3729"
         style="stop-color:#d5d5d5"
         offset="0" />
      <stop
         id="stop3731"
         style="stop-color:#f1f1f1"
         offset="1" />
    </linearGradient>
    <linearGradient
       id="linearGradient3270"
       y2="21"
       xlink:href="#linearGradient3641"
       gradientUnits="userSpaceOnUse"
       x2="51"
       gradientTransform="translate(100,-1)"
       y1="62"
       x1="51" />
    <linearGradient
       id="linearGradient3272"
       y2="32"
       xlink:href="#linearGradient3700"
       gradientUnits="userSpaceOnUse"
       x2="48"
       y1="88"
       x1="48" />
    <linearGradient
       id="linearGradient3274"
       y2="8"
       gradientUnits="userSpaceOnUse"
       x2="48"
       y1="88"
       x1="48">
      <stop
         id="stop3687"
         style="stop-color:#ca0a0a"
         offset="0" />
      <stop
         id="stop3689"
         style="stop-color:#f03131"
         offset="1" />
    </linearGradient>
    <clipPath
       id="clipPath3276"
       clipPathUnits="userSpaceOnUse">
      <rect
         id="rect3278"
         style="fill:url(#linearGradient3280)"
         rx="23.143"
         ry="23.143"
         height="85.165"
         width="85.165"
         y="17.514"
         x="22.784" />
    </clipPath>
    <linearGradient
       id="linearGradient3280"
       y2="1046.1"
       gradientUnits="userSpaceOnUse"
       x2="48"
       gradientTransform="matrix(1.0646 0 0 1.0646 14.267 -1009.1)"
       y1="962.62"
       x1="48">
      <stop
         id="stop3797"
         style="stop-color:#13a6fd"
         offset="0" />
      <stop
         id="stop3799"
         style="stop-color:#2975b6"
         offset="1" />
    </linearGradient>
    <clipPath
       id="clipPath3009"
       clipPathUnits="userSpaceOnUse">
      <path
         id="path3011"
         style="opacity:.15;fill:#fff"
         d="m-2 956.36h-96v33.562l96 25.687v-59.25z" />
    </clipPath>
  </defs>
  <metadata
     id="metadata11042">
    <rdf:RDF>
      <cc:Work
         rdf:about="">
        <dc:format>image/svg+xml</dc:format>
        <dc:type
           rdf:resource="http://purl.org/dc/dcmitype/StillImage" />
        <dc:title />
      </cc:Work>
    </rdf:RDF>
  </metadata>
  <g
     id="layer1"
     transform="translate(0 -956.36)">
    <g
       id="g3070"
       clip-path="url(#clipPath3276)"
       transform="matrix(1.0803 0 0 1.0803 -22.612 939.44)">
      <g
         id="g3231"
         transform="matrix(1.0213 0 0 1.0213 4.0981 -.97407)">
        <g
           id="g3254"
           transform="matrix(1.0143 0 0 1.0143 11.757 10.205)">
          <path
             id="rect2419"
             d="m18 6v1h-6c-2.7943 0-5 2.2057-5 5v72c0 2.7943 2.2057 5 5 5h6v1h60v-1h6c2.7943 0 5-2.2057 5-5v-72c0-2.7943-2.206-5-5-5h-6v-1h-60z"
             style="fill:#ecf0f1" />
          <path
             id="path3718"
             d="m48 36-42 42v1l42-42 42 42v-1l-42-42z"
             style="opacity:0.40000000000000002;fill:#7f8c8d" />
          <path
             id="path3613"
             d="m12 6c-3.324 0-6 2.676-6 6v6l42 42 42-42v-6c0-3.324-2.676-6-6-6h-72z"
             style="fill:#ecf0f1" />
          <path
             id="path3709"
             d="m6 17v1l42 42 42-42v-1l-42 42-42-42z"
             style="opacity:0.59999999999999998;fill:#7f8c8d" />
          <path
             id="rect2903"
             d="m12 6c-3.324 0-6 2.676-6 6v72c0 3.324 2.676 6 6 6h6v-67.719l29.875 29.844 30.125-30.125v68h6c3.324 0 6-2.676 6-6v-72c0-3.324-2.676-6-6-6h-6l-30 30-30-30h-6z"
             style="color:#000000;fill:url(#linearGradient3274)" />
        </g>
      </g>
    </g>
  </g>
</svg>
