<?xml version="1.0" encoding="UTF-8" standalone="no"?>
<!-- Created with Inkscape (http://www.inkscape.org/) -->

<svg
   xmlns:dc="http://purl.org/dc/elements/1.1/"
   xmlns:cc="http://creativecommons.org/ns#"
   xmlns:rdf="http://www.w3.org/1999/02/22-rdf-syntax-ns#"
   xmlns:svg="http://www.w3.org/2000/svg"
   xmlns="http://www.w3.org/2000/svg"
   xmlns:xlink="http://www.w3.org/1999/xlink"
   xmlns:sodipodi="http://sodipodi.sourceforge.net/DTD/sodipodi-0.dtd"
   xmlns:inkscape="http://www.inkscape.org/namespaces/inkscape"
   id="svg11037"
   height="96"
   width="96"
   version="1.1"
   inkscape:version="0.48.5 r10040"
   sodipodi:docname="google-settings.svg">
  <sodipodi:namedview
     pagecolor="#ffffff"
     bordercolor="#666666"
     borderopacity="1"
     objecttolerance="10"
     gridtolerance="10"
     guidetolerance="10"
     inkscape:pageopacity="0"
     inkscape:pageshadow="2"
     inkscape:window-width="1366"
     inkscape:window-height="713"
     id="namedview15"
     showgrid="false"
     inkscape:zoom="3.4766083"
     inkscape:cx="63.206892"
     inkscape:cy="37.125216"
     inkscape:window-x="0"
     inkscape:window-y="24"
     inkscape:window-maximized="1"
     inkscape:current-layer="layer1"
     showguides="true"
     inkscape:guide-bbox="true">
    <inkscape:grid
       type="xygrid"
       id="grid3086" />
  </sodipodi:namedview>
  <defs
     id="defs11039">
    <linearGradient
       id="linearGradient11642"
       y2="1046.1"
       gradientUnits="userSpaceOnUse"
       y1="962.62"
       gradientTransform="matrix(1.15,0,0,1.15,-7.1999,-150.65)"
       x2="48"
       x1="48"
       spreadMethod="pad"
       xlink:href="#linearGradient7843">
      <stop
         id="stop3624"
         style="stop-color:#d6d6d6"
         offset="0" />
      <stop
         id="stop3626"
         style="stop-color:#eaeaea"
         offset="1" />
    </linearGradient>
    <clipPath
       id="clipPath3009"
       clipPathUnits="userSpaceOnUse">
      <path
         id="path3011"
         style="opacity:.15;fill:#fff"
         d="m-2 956.36h-96v33.562l96 25.687v-59.25z" />
    </clipPath>
    <linearGradient
       id="linearGradient7843"
       y2="967.59998"
       gradientUnits="userSpaceOnUse"
       x2="47.994999"
       y1="1040.1"
       x1="47.994999"
       gradientTransform="translate(-25.016949,-9.7627119)">
      <stop
         id="stop7839"
         stop-color="#d40000"
         offset="0" />
      <stop
         id="stop7841"
         stop-color="#e83e00"
         offset="1" />
    </linearGradient>
    <linearGradient
       y2="967.59998"
       x2="47.994999"
       y1="1040.1"
       x1="47.994999"
       gradientTransform="matrix(0.82541991,0,0,0.82541991,86.179307,-783.39593)"
       gradientUnits="userSpaceOnUse"
       id="linearGradient3047"
       xlink:href="#linearGradient7843"
       inkscape:collect="always" />
  </defs>
  <metadata
     id="metadata11042">
    <rdf:RDF>
      <cc:Work
         rdf:about="">
        <dc:format>image/svg+xml</dc:format>
        <dc:type
           rdf:resource="http://purl.org/dc/dcmitype/StillImage" />
        <dc:title />
      </cc:Work>
    </rdf:RDF>
  </metadata>
  <g
     id="layer1"
     transform="translate(0 -956.36)">
    <rect
       id="rect3867"
       style="fill:#7f8c8d;fill-opacity:1"
       rx="25"
       ry="25"
       height="92"
       width="92"
       y="958.36"
       x="2" />
    <g
       id="g7058"
       transform="matrix(1.1902,0,0,1.1902,-123.77,-200.87)">
      <g
         id="layer5"
         transform="matrix(1.0179,0,0,1.0179,94.384,956.98)" />
    </g>
    <path
       style="fill:#bdc3c7"
       d="m 76.197158,1008.065 c 0.152,-1.216 0.266,-2.451 0.266,-3.705 0,-1.254 -0.114,-2.489 -0.266,-3.705 l 8.037006,-6.28901 c 0.722,-0.57 0.931008,-1.596 0.456,-2.432 l -7.600006,-13.16697 c -0.475,-0.817 -1.463,-1.159 -2.318,-0.817 l -9.462014,3.819 c -1.956999,-1.501 -4.104007,-2.774 -6.422007,-3.743 L 57.463129,967.956 c -0.171,-0.893 -0.95,-1.596 -1.899999,-1.596 H 40.363109 c -0.95,0 -1.729,0.703 -1.881,1.596 l -1.425008,10.07002 c -2.317999,0.969 -4.464999,2.223 -6.422007,3.743 l -9.462014,-3.819 c -0.855,-0.323 -1.843008,0 -2.318008,0.817 l -7.600006,13.16697 c -0.475001,0.817 -0.266001,1.843 0.455999,2.432 l 8.018015,6.28901 c -0.152,1.216 -0.266,2.451 -0.266,3.705 0,1.254 0.114,2.489 0.266,3.705 l -8.018015,6.289 c -0.722,0.57 -0.931,1.596 -0.455999,2.432 l 7.600006,13.1671 c 0.475,0.8169 1.463008,1.1589 2.318008,0.8169 l 9.462014,-3.819 c 1.957008,1.501 4.104008,2.7741 6.422007,3.743 l 1.425008,10.07 c 0.152,0.8928 0.931,1.596 1.881,1.596 H 55.56313 c 0.949999,0 1.728999,-0.7032 1.880999,-1.596 l 1.425008,-10.07 c 2.318,-0.9689 4.465008,-2.2229 6.422007,-3.743 l 9.462014,3.819 c 0.855,0.3228 1.843,0 2.318,-0.8169 l 7.600006,-13.1671 c 0.475008,-0.817 0.266,-1.843 -0.456,-2.432 l -8.018006,-6.289 z"
       id="path3090"
       inkscape:connector-curvature="0" />
    <path
       id="path208"
       style="fill:#ffffff;stroke-width:0;stroke-miterlimit:10.43299961"
       d="m 50.364997,984.36 c -2.833468,0 -6.383346,0.42333 -9.374896,2.89064 -2.256226,1.94155 -3.35938,4.61736 -3.359296,7.03117 0,4.09339 3.15988,8.22909 8.72407,8.22909 0.524544,0 1.089404,-0.054 1.666649,-0.1043 -0.263465,0.6299 -0.520829,1.1658 -0.520829,2.0574 0,1.6261 0.827167,2.6227 1.562483,3.5676 -2.361641,0.1581 -6.773258,0.4281 -10.025723,2.4219 C 35.936656,1012.2918 35,1014.9701 35,1016.8601 c 0,3.8846 3.664043,7.4999 11.275709,7.4999 9.029901,0 13.828182,-4.9873 13.828182,-9.9215 0,-3.6218 -2.11806,-5.4024 -4.427036,-7.3438 l -1.874979,-1.485 c -0.577235,-0.4733 -1.380151,-1.085 -1.380151,-2.2394 0,-1.1556 0.804132,-1.896 1.484317,-2.5782 2.205975,-1.7317 4.400952,-3.56318 4.400952,-7.44786 l 0,-0.39062 -0.02605,-0.33855 -0.02605,-0.36458 -0.05208,-0.33854 -0.07813,-0.3125 -0.05208,-0.31249 -0.07813,-0.31249 -0.104167,-0.28646 -0.104164,-0.28646 -0.104167,-0.28645 -0.104164,-0.26041 -0.129167,-0.26 -0.130831,-0.23416 -0.129999,-0.23418 -0.155831,-0.23415 -0.130207,-0.23437 -0.156248,-0.20833 -0.156248,-0.20834 -0.130833,-0.1825 -0.156664,-0.1825 -0.155832,-0.1825 -0.155831,-0.15665 -0.156666,-0.18166 -0.156664,-0.15668 -0.155832,-0.13 -0.155833,-0.12999 -0.130831,-0.13001 -0.155831,-0.13082 -0.129999,-0.13 -0.130831,-0.10417 -0.104166,-0.10415 -0.129999,-0.10418 3.255131,0 3.359296,-1.87498 -10.833213,0 z m -3.28163,1.71874 c 4.359202,0 6.61451,5.88251 6.61451,9.66151 l 0,0.10417 0,0.0784 0,0.10417 -0.02604,0.10417 0,0.10416 0,0.10417 0,0.13017 -0.02605,0.10416 0,0.13026 -0.02605,0.10416 0,0.13017 -0.02666,0.13083 -0.02584,0.10417 -0.02584,0.13 -0.02584,0.13083 -0.02584,0.13 -0.02666,0.13 -0.05166,0.13 -0.0525,0.13 -0.02584,0.1308 -0.05166,0.13 -0.07813,0.1303 -0.05208,0.1302 -0.05208,0.1302 -0.07813,0.1302 -0.07813,0.1302 -0.07813,0.1302 -0.07813,0.1042 -0.104166,0.1301 -0.07834,0.1301 -0.130208,0.1042 -0.104165,0.1301 c -0.84074,0.83926 -2.255142,1.45836 -3.567627,1.45836 -4.514868,0 -6.562428,-5.83278 -6.562428,-9.34908 0,-1.36498 0.280855,-2.77813 1.17182,-3.88012 0.840825,-1.05082 2.309142,-1.74498 3.671627,-1.74498 z m 2.552056,23.43716 0.05208,0 0.05208,0 0.05208,0 0.05208,0 0.02605,0 0.05208,0 0.02605,0 0.05208,0 0.05208,0 0.02605,0 0.07813,0 0.07813,0 0.05208,0 0.07813,0 0.05208,0 0.07813,0 0.07813,0 0.05208,0.025 0.07813,0 0.07813,0 0.02605,0 0.05208,0.025 c 3.990373,2.8359 5.729104,4.2484 5.729104,6.927 0,3.255 -2.694888,5.6509 -7.734249,5.6509 -5.616688,0 -9.218231,-2.6798 -9.218231,-6.4061 0,-3.7286 3.348296,-4.9715 4.505116,-5.3907 2.20356,-0.7355 5.022862,-0.8333 5.494774,-0.8333 z"
       inkscape:connector-curvature="0"
       sodipodi:nodetypes="cccscsccsssccscscccccccccccccccccccccccccccccccccccccsccccccccccccccccccccccccccccccccssccccccccccccccccccccccccccsssccc" />
  </g>
</svg>
