<?xml version="1.0" encoding="UTF-8" standalone="no"?>
<!-- Created with Inkscape (http://www.inkscape.org/) -->

<svg
   xmlns:dc="http://purl.org/dc/elements/1.1/"
   xmlns:cc="http://creativecommons.org/ns#"
   xmlns:rdf="http://www.w3.org/1999/02/22-rdf-syntax-ns#"
   xmlns:svg="http://www.w3.org/2000/svg"
   xmlns="http://www.w3.org/2000/svg"
   xmlns:xlink="http://www.w3.org/1999/xlink"
   xmlns:sodipodi="http://sodipodi.sourceforge.net/DTD/sodipodi-0.dtd"
   xmlns:inkscape="http://www.inkscape.org/namespaces/inkscape"
   id="svg11037"
   height="96"
   width="96"
   version="1.1"
   inkscape:version="0.48.5 r10040"
   sodipodi:docname="google-earth.svg">
  <sodipodi:namedview
     pagecolor="#ffffff"
     bordercolor="#666666"
     borderopacity="1"
     objecttolerance="10"
     gridtolerance="10"
     guidetolerance="10"
     inkscape:pageopacity="0"
     inkscape:pageshadow="2"
     inkscape:window-width="1366"
     inkscape:window-height="713"
     id="namedview15"
     showgrid="false"
     inkscape:zoom="4.9166666"
     inkscape:cx="52.69926"
     inkscape:cy="43.726221"
     inkscape:window-x="0"
     inkscape:window-y="24"
     inkscape:window-maximized="1"
     inkscape:current-layer="layer1" />
  <defs
     id="defs11039">
    <linearGradient
       id="linearGradient11642"
       y2="1046.1"
       gradientUnits="userSpaceOnUse"
       y1="962.62"
       gradientTransform="matrix(1.15 0 0 1.15 -7.1999 -150.65)"
       x2="48"
       x1="48">
      <stop
         id="stop3624"
         style="stop-color:#d6d6d6"
         offset="0" />
      <stop
         id="stop3626"
         style="stop-color:#eaeaea"
         offset="1" />
    </linearGradient>
    <clipPath
       id="clipPath3009"
       clipPathUnits="userSpaceOnUse">
      <path
         id="path3011"
         style="opacity:.15;fill:#fff"
         d="m-2 956.36h-96v33.562l96 25.687v-59.25z" />
    </clipPath>
    <clipPath
       clipPathUnits="userSpaceOnUse"
       id="clipPath6457">
      <path
         style="color:#bebebe;fill:url(#linearGradient6461);fill-opacity:1;fill-rule:nonzero;stroke:none;stroke-width:2;marker:none;visibility:visible;display:inline;overflow:visible;enable-background:accumulate"
         d="m 106.18182,92.727271 c -14.1128,0 -25.454546,11.341749 -25.454546,25.454549 l 0,75.63636 c 0,14.1128 11.341746,25.45455 25.454546,25.45455 l 75.63636,0 c 14.1128,0 25.45455,-11.34175 25.45455,-25.45455 l 0,-75.63636 c 0,-14.1128 -11.34175,-25.454549 -25.45455,-25.454549 l -75.63636,0 z"
         id="path6459"
         inkscape:connector-curvature="0" />
    </clipPath>
    <linearGradient
       id="linearGradient4043">
      <stop
         style="stop-color:#7a9ee4;stop-opacity:1;"
         offset="0"
         id="stop4045" />
      <stop
         style="stop-color:#4765ac;stop-opacity:1;"
         offset="1"
         id="stop4047" />
    </linearGradient>
    <linearGradient
       inkscape:collect="always"
       xlink:href="#linearGradient4091"
       id="linearGradient3112"
       gradientUnits="userSpaceOnUse"
       gradientTransform="translate(0,4)"
       x1="136"
       y1="80"
       x2="181"
       y2="232" />
    <linearGradient
       id="linearGradient4091">
      <stop
         style="stop-color:#ffffff;stop-opacity:1;"
         offset="0"
         id="stop4093" />
      <stop
         style="stop-color:#e7e7e7;stop-opacity:1;"
         offset="1"
         id="stop4095" />
    </linearGradient>
    <clipPath
       clipPathUnits="userSpaceOnUse"
       id="clipPath4057">
      <path
         transform="matrix(3.7209302,0,0,4,730.04651,220)"
         d="m -136,-16 a 21.5,20 0 1 1 -43,0 21.5,20 0 1 1 43,0 z"
         sodipodi:ry="20"
         sodipodi:rx="21.5"
         sodipodi:cy="-16"
         sodipodi:cx="-157.5"
         id="path4059"
         style="color:#000000;fill:url(#linearGradient4061);fill-opacity:1;fill-rule:nonzero;stroke:none;stroke-width:2;marker:none;visibility:visible;display:inline;overflow:visible;enable-background:accumulate"
         sodipodi:type="arc" />
    </clipPath>
    <linearGradient
       y2="232"
       x2="181"
       y1="80"
       x1="136"
       gradientTransform="translate(0,4)"
       gradientUnits="userSpaceOnUse"
       id="linearGradient3217"
       xlink:href="#linearGradient4091"
       inkscape:collect="always" />
    <linearGradient
       inkscape:collect="always"
       xlink:href="#linearGradient11642"
       id="linearGradient3029"
       gradientUnits="userSpaceOnUse"
       gradientTransform="matrix(1.5818182,0,0,1.5818182,68.072866,-1432.7094)"
       x1="48"
       y1="962.62"
       x2="48"
       y2="1046.1" />
    <linearGradient
       inkscape:collect="always"
       xlink:href="#linearGradient11642"
       id="linearGradient3051"
       gradientUnits="userSpaceOnUse"
       gradientTransform="matrix(1.15,0,0,1.15,-7.1999003,-150.64999)"
       x1="48"
       y1="962.62"
       x2="48"
       y2="1046.1" />
    <clipPath
       clipPathUnits="userSpaceOnUse"
       id="clipPath3061">
      <rect
         x="80.727272"
         y="92.727249"
         width="126.54546"
         height="126.54546"
         ry="34.387352"
         rx="34.387352"
         style="fill:url(#linearGradient3065)"
         id="rect3063" />
    </clipPath>
    <linearGradient
       inkscape:collect="always"
       xlink:href="#linearGradient11642"
       id="linearGradient3065"
       gradientUnits="userSpaceOnUse"
       gradientTransform="matrix(1.5818182,0,0,1.5818182,68.072866,-1432.7094)"
       x1="48"
       y1="962.62"
       x2="48"
       y2="1046.1" />
  </defs>
  <metadata
     id="metadata11042">
    <rdf:RDF>
      <cc:Work
         rdf:about="">
        <dc:format>image/svg+xml</dc:format>
        <dc:type
           rdf:resource="http://purl.org/dc/dcmitype/StillImage" />
        <dc:title></dc:title>
      </cc:Work>
    </rdf:RDF>
  </metadata>
  <g
     id="layer1"
     transform="translate(0 -956.36)">
    <g
       id="g3098"
       style="display:inline;enable-background:new"
       transform="matrix(0.72701149,0,0,0.72701149,-56.689656,890.94621)"
       clip-path="url(#clipPath3061)">
      <path
         sodipodi:type="arc"
         style="color:#000000;fill:#3498db;fill-opacity:1;fill-rule:nonzero;stroke:none;stroke-width:2;marker:none;visibility:visible;display:inline;overflow:visible;enable-background:accumulate"
         id="path3100"
         sodipodi:cx="-157.5"
         sodipodi:cy="-16"
         sodipodi:rx="21.5"
         sodipodi:ry="20"
         d="m -136,-16 c 0,11.045695 -9.62588,20 -21.5,20 -11.87412,0 -21.5,-8.954305 -21.5,-20 0,-11.045695 9.62588,-20 21.5,-20 11.87412,0 21.5,8.954305 21.5,20 z"
         transform="matrix(3.7209302,0,0,4,730.04651,220)" />
      <path
         style="fill:url(#linearGradient3217);fill-opacity:1;stroke:none;display:inline;enable-background:new"
         clip-path="url(#clipPath4057)"
         d="m 167.75,47.75 c -10.71725,0.33979 -83.508202,-1.80591 -86.5,16.5 0,0 -27,29.59375 13,29.59375 91,-35.5 73,95.40625 175,10.90625 l 0,-13.5 c -72.9728,9.24359 -62.76281,-44.72816 -101.5,-43.5 z M 95,114 c -10.717249,0.33979 -42.008202,9.69409 -45,28 0,0 -27,29.5625 13,29.5625 C 83,100.5625 177,225 239,169 l -1,0 C 165.0272,178.24359 133.73719,112.77184 95,114 z m -2.1875,77.96875 c -0.597028,-0.002 -1.207231,0.0121 -1.8125,0.0312 -10.717249,0.33979 -15.008202,16.69409 -18,35 0,0 5,22.5625 45,22.5625 -24,-64 49,13 111,-43 l -1,0 c -75.7701,27.80233 -97.57471,-14.43811 -135.1875,-14.5937 z"
         id="path3102"
         inkscape:connector-curvature="0"
         transform="translate(-3.5e-6,0)" />
    </g>
  </g>
</svg>
