<?xml version="1.0" encoding="UTF-8" standalone="no"?>
<!-- Created with Inkscape (http://www.inkscape.org/) -->

<svg
   xmlns:dc="http://purl.org/dc/elements/1.1/"
   xmlns:cc="http://creativecommons.org/ns#"
   xmlns:rdf="http://www.w3.org/1999/02/22-rdf-syntax-ns#"
   xmlns:svg="http://www.w3.org/2000/svg"
   xmlns="http://www.w3.org/2000/svg"
   xmlns:xlink="http://www.w3.org/1999/xlink"
   xmlns:sodipodi="http://sodipodi.sourceforge.net/DTD/sodipodi-0.dtd"
   xmlns:inkscape="http://www.inkscape.org/namespaces/inkscape"
   id="svg11037"
   height="96"
   width="96"
   version="1.1"
   inkscape:version="0.48.5 r10040"
   sodipodi:docname="hangouts.svg">
  <sodipodi:namedview
     pagecolor="#ffffff"
     bordercolor="#666666"
     borderopacity="1"
     objecttolerance="10"
     gridtolerance="10"
     guidetolerance="10"
     inkscape:pageopacity="0"
     inkscape:pageshadow="2"
     inkscape:window-width="1366"
     inkscape:window-height="713"
     id="namedview15"
     showgrid="false"
     inkscape:zoom="4.9166666"
     inkscape:cx="31.230467"
     inkscape:cy="48.752565"
     inkscape:window-x="0"
     inkscape:window-y="24"
     inkscape:window-maximized="1"
     inkscape:current-layer="layer1"
     showguides="true"
     inkscape:guide-bbox="true" />
  <defs
     id="defs11039">
    <linearGradient
       id="linearGradient11642"
       y2="1046.1"
       gradientUnits="userSpaceOnUse"
       y1="962.62"
       gradientTransform="matrix(1.15 0 0 1.15 -7.1999 -150.65)"
       x2="48"
       x1="48">
      <stop
         id="stop3624"
         style="stop-color:#d6d6d6"
         offset="0" />
      <stop
         id="stop3626"
         style="stop-color:#eaeaea"
         offset="1" />
    </linearGradient>
    <clipPath
       id="clipPath3009"
       clipPathUnits="userSpaceOnUse">
      <path
         id="path3011"
         style="opacity:.15;fill:#fff"
         d="m-2 956.36h-96v33.562l96 25.687v-59.25z" />
    </clipPath>
    <linearGradient
       inkscape:collect="always"
       xlink:href="#outerBackgroundGradient-0"
       id="linearGradient5754"
       gradientUnits="userSpaceOnUse"
       gradientTransform="matrix(0,-1,1,0,260,412)"
       x1="293"
       y1="76"
       x2="379"
       y2="76" />
    <linearGradient
       id="outerBackgroundGradient-0">
      <stop
         style="stop-color:#53a93f;stop-opacity:1"
         offset="0"
         id="stop3864-8-6-9" />
      <stop
         style="stop-color:#67c850;stop-opacity:1"
         offset="1"
         id="stop3866-9-1-2" />
    </linearGradient>
    <linearGradient
       y2="76"
       x2="379"
       y1="76"
       x1="293"
       gradientTransform="matrix(0,-1,1,0,-137.84188,1334.0343)"
       gradientUnits="userSpaceOnUse"
       id="linearGradient3134"
       xlink:href="#outerBackgroundGradient-0"
       inkscape:collect="always" />
    <linearGradient
       id="linearGradient11642-2"
       y2="1046.1"
       gradientUnits="userSpaceOnUse"
       y1="962.62"
       gradientTransform="matrix(1.15,0,0,1.15,-7.1999,-150.65)"
       x2="48"
       x1="48">
      <stop
         id="stop3624-8"
         style="stop-color:#d6d6d6"
         offset="0" />
      <stop
         id="stop3626-4"
         style="stop-color:#eaeaea"
         offset="1" />
    </linearGradient>
    <linearGradient
       y2="1046.1"
       x2="48"
       y1="962.62"
       x1="48"
       gradientTransform="matrix(1.15,0,0,1.15,-7.1999,-150.65)"
       gradientUnits="userSpaceOnUse"
       id="linearGradient3034"
       xlink:href="#outerBackgroundGradient-0"
       inkscape:collect="always" />
  </defs>
  <metadata
     id="metadata11042">
    <rdf:RDF>
      <cc:Work
         rdf:about="">
        <dc:format>image/svg+xml</dc:format>
        <dc:type
           rdf:resource="http://purl.org/dc/dcmitype/StillImage" />
        <dc:title />
      </cc:Work>
    </rdf:RDF>
  </metadata>
  <g
     id="layer1"
     transform="translate(0 -956.36)">
    <rect
       id="rect3867"
       style="fill:url(#linearGradient3034);fill-opacity:1.0"
       rx="25"
       ry="25"
       height="92"
       width="92"
       y="958.35999"
       x="2" />
    <path
       sodipodi:nodetypes="ssccsscsssscccscsccssssssscccscsccssss"
       inkscape:connector-curvature="0"
       id="path4372"
       d="m 48.5,974.36004 c -14.35939,0 -26,11.64061 -26,25.99996 0,14.3594 11.64061,26 26,26 l 0,8 c 6.4484,-4.5941 23.29526,-11.1414 25.875,-31.3125 0.11175,-0.8738 0.125,-1.7603 0.125,-2.6875 0,-0.82835 -0.0284,-1.63065 -0.125,-2.43745 C 73.15688,984.69515 62.04525,974.36004 48.5,974.36004 z m -12,18.00001 8,0 c 1.1079,0 2,0.8921 2,2 l 0,5.81245 c 0.002,0.062 0.002,0.125 0,0.1875 l 0,1.9999 0,2 c 0,5.3328 -5.125,7.75 -5.125,7.75 -0.9447,0.6203 -2.39458,0.2243 -2.89285,-0.79 -0.49827,-1.0144 0.0746,-2.4039 1.14285,-2.7725 0,0 2.875,-1.5211 2.875,-4.1875 l -6,0 c -1.10789,0 -2,-0.8921 -2,-2 l 0,-7.99995 c 0,-1.1079 0.89211,-2 2,-2 z m 16,0 8,0 c 1.1079,0 2,0.8921 2,2 l 0,5.81245 c 0.002,0.062 0.002,0.125 0,0.1875 l 0,1.9999 0,2 c 0,5.3328 -5.125,7.75 -5.125,7.75 -0.9447,0.6203 -2.39458,0.2243 -2.89285,-0.79 -0.49828,-1.0144 0.0746,-2.4039 1.14285,-2.7725 0,0 2.875,-1.5211 2.875,-4.1875 l -6,0 c -1.10789,0 -2,-0.8921 -2,-2 l 0,-7.99995 c 0,-1.1079 0.89211,-2 2,-2 z"
       style="color:#000000;fill:#ffffff;fill-opacity:1;fill-rule:nonzero;stroke:none;stroke-width:0;marker:none;visibility:visible;display:inline;overflow:visible;enable-background:accumulate" />
  </g>
</svg>
