<?xml version="1.0" encoding="UTF-8" standalone="no"?>
<!-- Created with Inkscape (http://www.inkscape.org/) -->

<svg
   xmlns:dc="http://purl.org/dc/elements/1.1/"
   xmlns:cc="http://creativecommons.org/ns#"
   xmlns:rdf="http://www.w3.org/1999/02/22-rdf-syntax-ns#"
   xmlns:svg="http://www.w3.org/2000/svg"
   xmlns="http://www.w3.org/2000/svg"
   xmlns:xlink="http://www.w3.org/1999/xlink"
   xmlns:sodipodi="http://sodipodi.sourceforge.net/DTD/sodipodi-0.dtd"
   xmlns:inkscape="http://www.inkscape.org/namespaces/inkscape"
   id="svg11037"
   height="96"
   width="96"
   version="1.1"
   inkscape:version="0.48.5 r10040"
   sodipodi:docname="soundcloud.svg">
  <sodipodi:namedview
     pagecolor="#ffffff"
     bordercolor="#666666"
     borderopacity="1"
     objecttolerance="10"
     gridtolerance="10"
     guidetolerance="10"
     inkscape:pageopacity="0"
     inkscape:pageshadow="2"
     inkscape:window-width="1366"
     inkscape:window-height="713"
     id="namedview15"
     showgrid="false"
     inkscape:zoom="5.8152174"
     inkscape:cx="43.231897"
     inkscape:cy="53.631375"
     inkscape:window-x="0"
     inkscape:window-y="24"
     inkscape:window-maximized="1"
     inkscape:current-layer="layer1"
     showguides="true"
     inkscape:guide-bbox="true" />
  <defs
     id="defs11039">
    <linearGradient
       id="linearGradient11642"
       y2="1046.1"
       gradientUnits="userSpaceOnUse"
       y1="962.62"
       gradientTransform="matrix(1.15 0 0 1.15 -7.1999 -150.65)"
       x2="48"
       x1="48">
      <stop
         id="stop3624"
         style="stop-color:#d6d6d6"
         offset="0" />
      <stop
         id="stop3626"
         style="stop-color:#eaeaea"
         offset="1" />
    </linearGradient>
    <clipPath
       id="clipPath3009"
       clipPathUnits="userSpaceOnUse">
      <path
         id="path3011"
         style="opacity:.15;fill:#fff"
         d="m-2 956.36h-96v33.562l96 25.687v-59.25z" />
    </clipPath>
    <linearGradient
       inkscape:collect="always"
       xlink:href="#linearGradient4146-2"
       id="linearGradient3899"
       gradientUnits="userSpaceOnUse"
       gradientTransform="matrix(0.77431838,0,0,0.77936293,12,988.38709)"
       x1="104.60813"
       y1="-36.265301"
       x2="105.89959"
       y2="80.496735" />
    <linearGradient
       id="linearGradient4146-2">
      <stop
         style="stop-color:#f6f6f6;stop-opacity:1;"
         offset="0"
         id="stop4148-2" />
      <stop
         style="stop-color:#e2e2e2;stop-opacity:1;"
         offset="1"
         id="stop4150-8" />
    </linearGradient>
    <linearGradient
       inkscape:collect="always"
       xlink:href="#outerBackgroundGradient-0"
       id="linearGradient10847"
       gradientUnits="userSpaceOnUse"
       gradientTransform="matrix(0,-1,1,0,260,412)"
       x1="293"
       y1="76"
       x2="379"
       y2="76" />
    <linearGradient
       id="outerBackgroundGradient-0">
      <stop
         style="stop-color:#da2b00;stop-opacity:1;"
         offset="0"
         id="stop3864-8-6-38" />
      <stop
         style="stop-color:#fe8500;stop-opacity:1;"
         offset="1"
         id="stop3866-9-1-42" />
    </linearGradient>
    <linearGradient
       y2="76"
       x2="379"
       y1="76"
       x1="293"
       gradientTransform="matrix(0,-1,1,0,62.915256,1339.7498)"
       gradientUnits="userSpaceOnUse"
       id="linearGradient3166"
       xlink:href="#outerBackgroundGradient-0"
       inkscape:collect="always" />
    <linearGradient
       id="linearGradient11642-6"
       y2="1046.1"
       gradientUnits="userSpaceOnUse"
       y1="962.62"
       gradientTransform="matrix(1.15,0,0,1.15,-7.1999,-150.65)"
       x2="48"
       x1="48">
      <stop
         id="stop3624-1"
         style="stop-color:#d6d6d6"
         offset="0" />
      <stop
         id="stop3626-5"
         style="stop-color:#eaeaea"
         offset="1" />
    </linearGradient>
    <linearGradient
       y2="1046.1"
       x2="48"
       y1="962.62"
       x1="48"
       gradientTransform="matrix(1.15,0,0,1.15,-7.1999,-150.65)"
       gradientUnits="userSpaceOnUse"
       id="linearGradient3002"
       xlink:href="#outerBackgroundGradient-0"
       inkscape:collect="always" />
  </defs>
  <metadata
     id="metadata11042">
    <rdf:RDF>
      <cc:Work
         rdf:about="">
        <dc:format>image/svg+xml</dc:format>
        <dc:type
           rdf:resource="http://purl.org/dc/dcmitype/StillImage" />
        <dc:title></dc:title>
      </cc:Work>
    </rdf:RDF>
  </metadata>
  <g
     id="layer1"
     transform="translate(0 -956.36)">
    <rect
       id="rect3867"
       style="fill:url(#linearGradient3002);fill-opacity:1.0"
       rx="25"
       ry="25"
       height="92"
       width="92"
       y="958.35999"
       x="2" />
    <path
       style="fill:url(#linearGradient3899);fill-opacity:1;display:inline;enable-background:new"
       id="path2465"
       d="m 12.81536,1007.2102 c -0.15022,0 -0.26947,0.1169 -0.28882,0.2837 L 12,1011.5193 l 0.52654,3.9561 c 0.0194,0.1667 0.1386,0.2829 0.28882,0.2829 0.14557,0 0.26404,-0.1154 0.28726,-0.2813 l 0,0 0,0 0,0 0.62412,-3.9577 -0.62412,-4.0262 c -0.0225,-0.166 -0.14247,-0.2829 -0.28726,-0.2829 z m 2.96098,-2.1993 c -0.0248,-0.1731 -0.14789,-0.2923 -0.29965,-0.2923 -0.15254,0 -0.27876,0.1232 -0.29966,0.2923 0,0 -0.70772,6.5084 -0.70772,6.5084 l 0.70772,6.3643 c 0.0202,0.1707 0.14635,0.2938 0.29966,0.2938 0.15099,0 0.27411,-0.12 0.29888,-0.2922 l 0.8053,-6.3659 z m 11.1533,-6.00344 c -0.29038,0 -0.53042,0.23927 -0.54436,0.54324 l -0.5637,11.9741 0.5637,7.7382 c 0.0147,0.3025 0.25398,0.5409 0.54436,0.5409 0.28881,0 0.52807,-0.2392 0.54511,-0.5424 l 0,0 0.63727,-7.7391 -0.63727,-11.9741 c -0.017,-0.30393 -0.2563,-0.54318 -0.54511,-0.54318 z m -5.77255,4.16184 c -0.223,0 -0.40497,0.1792 -0.42278,0.4185 l -0.63494,7.9338 0.63494,7.676 c 0.017,0.2378 0.19978,0.417 0.42278,0.417 0.22068,0 0.40264,-0.1792 0.42201,-0.417 l 0.72166,-7.676 -0.72166,-7.9354 c -0.0194,-0.2377 -0.20133,-0.4169 -0.42201,-0.4169 z m 11.63878,16.6339 c 0.36005,0 0.65275,-0.2923 0.66746,-0.6663 l 0.55286,-7.6082 -0.55208,-15.94188 c -0.0147,-0.37408 -0.30741,-0.66633 -0.66747,-0.66633 -0.36315,0 -0.65662,0.29303 -0.66823,0.66713 0,10e-4 -0.49015,15.94028 -0.49015,15.94028 l 0.49015,7.6112 c 0.0116,0.3711 0.30508,0.6641 0.66746,0.6641 z m 12.00967,0.035 c 0.49557,0 0.90441,-0.4107 0.91371,-0.9158 l 0,0 0,0 0.3856,-7.3899 -0.3856,-18.41164 c -0.009,-0.50425 -0.41814,-0.91575 -0.91371,-0.91575 -0.49633,0 -0.90594,0.41073 -0.91368,0.91653 l -0.34458,18.40456 c 0,0.012 0.34458,7.4009 0.34458,7.4009 0.008,0.5004 0.41812,0.9111 0.91368,0.9111 z m -6.05052,-0.029 c 0.4313,0 0.77897,-0.3484 0.79059,-0.7927 l 0,0 0.46923,-7.4928 -0.47002,-16.05715 c -0.0117,-0.44424 -0.35928,-0.79183 -0.79057,-0.79183 -0.43439,0 -0.78206,0.34759 -0.79136,0.79183 l -0.41736,16.05795 0.41814,7.4913 c 0.01,0.4395 0.35697,0.7879 0.79135,0.7879 z m -14.72288,-0.07 c 0.2563,0 0.46381,-0.2065 0.48317,-0.4785 l 0.67985,-7.7398 -0.67985,-7.3626 c -0.0186,-0.272 -0.2261,-0.477 -0.48317,-0.477 -0.26017,0 -0.4677,0.2066 -0.48395,0.4801 l -0.59855,7.3595 0.59855,7.7391 c 0.017,0.2728 0.22378,0.4793 0.48395,0.4793 z m -5.72687,-0.4239 c 0.18739,0 0.33915,-0.1488 0.36084,-0.3546 l 0.76347,-7.4414 -0.7627,-7.7219 c -0.0225,-0.2065 -0.17422,-0.3554 -0.36161,-0.3554 -0.1897,0 -0.34147,0.1496 -0.36083,0.3554 0,10e-4 -0.67211,7.7219 -0.67211,7.7219 l 0.67211,7.4398 c 0.0186,0.2066 0.17036,0.3562 0.36083,0.3562 z m 23.4634,-24.11038 c -0.46847,0 -0.84401,0.37488 -0.8533,0.85496 l -0.38096,15.47112 0.38096,7.4445 c 0.01,0.4739 0.38406,0.8487 0.8533,0.8487 0.46769,0 0.84091,-0.3741 0.85175,-0.8542 l 0,0.01 0.42742,-7.4445 -0.42742,-15.4728 c -0.0109,-0.47852 -0.38406,-0.85339 -0.85175,-0.85339 z m -11.91676,24.61298 c 0.32366,0 0.5908,-0.2657 0.60629,-0.6047 l 0.59468,-7.6869 -0.59468,-14.71278 c -0.0163,-0.3398 -0.28263,-0.60478 -0.60629,-0.60478 -0.32676,0 -0.59313,0.26575 -0.60707,0.60478 0,10e-4 -0.52653,14.71278 -0.52653,14.71278 l 0.52732,7.69 c 0.0132,0.3359 0.27952,0.6016 0.60628,0.6016 z m 6.64056,-0.7255 0,0 0.51105,-7.5598 -0.51105,-16.4788 c -0.0124,-0.40916 -0.33297,-0.73026 -0.72864,-0.73026 -0.398,0 -0.71856,0.32034 -0.72941,0.73026 l -0.45375,16.478 0.45453,7.5638 c 0.0109,0.4053 0.33141,0.7255 0.72863,0.7255 0.39646,0 0.71547,-0.3202 0.72864,-0.7279 l 0,0 z m 38.65243,-17.062 c -1.21336,0 -2.37098,0.2471 -3.42559,0.6921 -0.70463,-8.0337 -7.39784,-14.33562 -15.56225,-14.33562 -1.99774,0 -3.94516,0.39591 -5.66492,1.06538 -0.66824,0.26031 -0.84633,0.52842 -0.85253,1.04826 l 0,28.29088 c 0.007,0.5455 0.42743,0.9999 0.9563,1.0536 0.0225,0 24.39025,0.015 24.54821,0.015 4.8906,0 8.85588,-3.9911 8.85588,-8.9144 0,-4.9232 -3.96452,-8.9151 -8.8551,-8.9151 z M 47.82926,990.47613 c -0.53196,0 -0.96867,0.43956 -0.97642,0.97965 l -0.39954,20.08022 0.40032,7.2879 c 0.007,0.5323 0.44368,0.9711 0.97564,0.9711 0.53041,0 0.96712,-0.4388 0.97487,-0.9789 l 0,0.01 0.43439,-7.2886 -0.43439,-20.08184 c -0.008,-0.53853 -0.44446,-0.97809 -0.97487,-0.97809 z"
       inkscape:connector-curvature="0"
       sodipodi:nodetypes="scccsccccccscscccscccccccsccccccscccscccsscccscccsscccccscccscccccscccccscccscccsscccscccsccccsccccccscccscccsccccscccscccccsccccssccccccscccccc" />
  </g>
</svg>
