<?xml version="1.0" encoding="UTF-8" standalone="no"?>
<!-- Created with Inkscape (http://www.inkscape.org/) -->

<svg
   xmlns:dc="http://purl.org/dc/elements/1.1/"
   xmlns:cc="http://creativecommons.org/ns#"
   xmlns:rdf="http://www.w3.org/1999/02/22-rdf-syntax-ns#"
   xmlns:svg="http://www.w3.org/2000/svg"
   xmlns="http://www.w3.org/2000/svg"
   xmlns:xlink="http://www.w3.org/1999/xlink"
   xmlns:sodipodi="http://sodipodi.sourceforge.net/DTD/sodipodi-0.dtd"
   xmlns:inkscape="http://www.inkscape.org/namespaces/inkscape"
   id="svg11037"
   height="96"
   width="96"
   version="1.1"
   inkscape:version="0.48.5 r10040"
   sodipodi:docname="spotify.svg">
  <sodipodi:namedview
     pagecolor="#ffffff"
     bordercolor="#666666"
     borderopacity="1"
     objecttolerance="10"
     gridtolerance="10"
     guidetolerance="10"
     inkscape:pageopacity="0"
     inkscape:pageshadow="2"
     inkscape:window-width="1366"
     inkscape:window-height="713"
     id="namedview15"
     showgrid="false"
     inkscape:zoom="3.4766083"
     inkscape:cx="56.801256"
     inkscape:cy="48.274491"
     inkscape:window-x="0"
     inkscape:window-y="24"
     inkscape:window-maximized="1"
     inkscape:current-layer="layer1"
     showguides="true"
     inkscape:guide-bbox="true" />
  <defs
     id="defs11039">
    <linearGradient
       id="linearGradient11642"
       y2="1046.1"
       gradientUnits="userSpaceOnUse"
       y1="962.62"
       gradientTransform="matrix(1.15 0 0 1.15 -7.1999 -150.65)"
       x2="48"
       x1="48">
      <stop
         id="stop3624"
         style="stop-color:#d6d6d6"
         offset="0" />
      <stop
         id="stop3626"
         style="stop-color:#eaeaea"
         offset="1" />
    </linearGradient>
    <clipPath
       id="clipPath3009"
       clipPathUnits="userSpaceOnUse">
      <path
         id="path3011"
         style="opacity:.15;fill:#fff"
         d="m-2 956.36h-96v33.562l96 25.687v-59.25z" />
    </clipPath>
    <linearGradient
       inkscape:collect="always"
       xlink:href="#outerBackgroundGradient-4"
       id="linearGradient4264"
       x1="293"
       y1="76"
       x2="379"
       y2="76"
       gradientUnits="userSpaceOnUse"
       gradientTransform="matrix(0,-1,1,0,259.5,412)" />
    <linearGradient
       id="outerBackgroundGradient-4">
      <stop
         style="stop-color:#7fb000;stop-opacity:1;"
         offset="0"
         id="stop3864-8-6-6" />
      <stop
         style="stop-color:#b4d500;stop-opacity:1;"
         offset="1"
         id="stop3866-9-1-9" />
    </linearGradient>
    <linearGradient
       y2="76"
       x2="379"
       y1="76"
       x1="293"
       gradientTransform="matrix(0,-1,1,0,66.169493,1325.5125)"
       gradientUnits="userSpaceOnUse"
       id="linearGradient3097"
       xlink:href="#outerBackgroundGradient-4"
       inkscape:collect="always" />
    <linearGradient
       id="linearGradient11642-0"
       y2="1046.1"
       gradientUnits="userSpaceOnUse"
       y1="962.62"
       gradientTransform="matrix(1.15,0,0,1.15,-7.1999,-150.65)"
       x2="48"
       x1="48">
      <stop
         id="stop3624-2"
         style="stop-color:#d6d6d6"
         offset="0" />
      <stop
         id="stop3626-6"
         style="stop-color:#eaeaea"
         offset="1" />
    </linearGradient>
    <linearGradient
       y2="1046.1"
       x2="48"
       y1="962.62"
       x1="48"
       gradientTransform="matrix(1.15,0,0,1.15,-9.1999,-1109.01)"
       gradientUnits="userSpaceOnUse"
       id="linearGradient3002"
       xlink:href="#linearGradient11642-0"
       inkscape:collect="always" />
    <linearGradient
       inkscape:collect="always"
       xlink:href="#outerBackgroundGradient-4"
       id="linearGradient3074"
       gradientUnits="userSpaceOnUse"
       gradientTransform="matrix(1.15,0,0,1.15,-7.1999,-150.65)"
       x1="48"
       y1="962.62"
       x2="48"
       y2="1046.1" />
  </defs>
  <metadata
     id="metadata11042">
    <rdf:RDF>
      <cc:Work
         rdf:about="">
        <dc:format>image/svg+xml</dc:format>
        <dc:type
           rdf:resource="http://purl.org/dc/dcmitype/StillImage" />
        <dc:title></dc:title>
      </cc:Work>
    </rdf:RDF>
  </metadata>
  <g
     id="layer1"
     transform="translate(0 -956.36)">
    <rect
       id="rect3867"
       style="fill:url(#linearGradient3074);fill-opacity:1.0"
       rx="25"
       ry="25"
       height="92"
       width="92"
       y="958.35999"
       x="2" />
    <path
       sodipodi:nodetypes="scsccscssscsccscssscsccscss"
       inkscape:connector-curvature="0"
       id="path3072"
       d="m 39.127288,984.76352 c -5.69634,0.095 -11.71841,0.76972 -17.82776,2.32162 -2.16276,0.38776 -3.72883,2.84087 -3.19412,5.00329 0.53471,2.16241 3.05638,3.57387 5.14313,2.87876 24.78133,-6.29496 49.21266,3.92667 49.21266,3.92667 1.94402,0.82282 4.45015,-0.2244 5.26055,-2.1978 0.81039,-1.9735 -0.22104,-4.51761 -2.16505,-5.34029 0,0 -14.80399,-6.38305 -33.99313,-6.59225 -0.79956,-0.008 -1.62251,-0.0136 -2.43628,0 z m 0.83121,14.67494 c -5.03448,0.03 -10.46888,0.58504 -16.19404,1.97794 -1.72762,0.3 -2.99158,2.2439 -2.58437,3.9745 0.4072,1.7306 2.40007,2.8847 4.07479,2.3598 23.82709,-5.7971 42.30512,4.0127 42.30512,4.0127 1.49312,0.7846 3.55487,0.1193 4.32775,-1.3964 0.77287,-1.5158 0.11755,-3.6088 -1.37556,-4.3934 0,0 -11.57013,-6.14588 -28.40404,-6.53514 -0.70143,-0.016 -1.43044,0 -2.14965,0 z m -0.37262,13.75804 c -4.41864,-0.021 -9.28599,0.4398 -14.4743,1.605 -1.31369,0.1904 -2.30328,1.6487 -2.01042,2.9626 0.29286,1.3139 1.80446,2.1976 3.07091,1.7953 22.06479,-4.9553 36.94532,3.898 36.94532,3.898 1.08877,0.7727 2.79552,0.3897 3.4621,-0.7767 0.66657,-1.1665 0.14672,-2.8607 -1.05449,-3.4366 0,0 -9.3726,-5.4904 -24.07609,-5.9903 -0.61263,-0.021 -1.23178,-0.054 -1.86303,-0.057 z"
       style="font-size:medium;font-style:normal;font-variant:normal;font-weight:normal;font-stretch:normal;text-indent:0;text-align:start;text-decoration:none;line-height:normal;letter-spacing:normal;word-spacing:normal;text-transform:none;direction:ltr;block-progression:tb;writing-mode:lr-tb;text-anchor:start;baseline-shift:baseline;color:#000000;fill:#ffffff;fill-opacity:1;stroke:none;stroke-width:5.53480864;marker:none;visibility:visible;display:inline;overflow:visible;enable-background:accumulate;font-family:Sans;-inkscape-font-specification:Sans" />
  </g>
</svg>
