<?xml version="1.0" encoding="UTF-8" standalone="no"?>
<!-- Created with Inkscape (http://www.inkscape.org/) -->

<svg
   xmlns:dc="http://purl.org/dc/elements/1.1/"
   xmlns:cc="http://creativecommons.org/ns#"
   xmlns:rdf="http://www.w3.org/1999/02/22-rdf-syntax-ns#"
   xmlns:svg="http://www.w3.org/2000/svg"
   xmlns="http://www.w3.org/2000/svg"
   xmlns:xlink="http://www.w3.org/1999/xlink"
   xmlns:sodipodi="http://sodipodi.sourceforge.net/DTD/sodipodi-0.dtd"
   xmlns:inkscape="http://www.inkscape.org/namespaces/inkscape"
   id="svg11037"
   height="96"
   width="96"
   version="1.1"
   inkscape:version="0.48.5 r10040"
   sodipodi:docname="tumblr.svg">
  <sodipodi:namedview
     pagecolor="#ffffff"
     bordercolor="#666666"
     borderopacity="1"
     objecttolerance="10"
     gridtolerance="10"
     guidetolerance="10"
     inkscape:pageopacity="0"
     inkscape:pageshadow="2"
     inkscape:window-width="1366"
     inkscape:window-height="713"
     id="namedview15"
     showgrid="false"
     inkscape:zoom="4.9166666"
     inkscape:cx="76.067795"
     inkscape:cy="43.726221"
     inkscape:window-x="0"
     inkscape:window-y="24"
     inkscape:window-maximized="1"
     inkscape:current-layer="layer1" />
  <defs
     id="defs11039">
    <linearGradient
       id="linearGradient11642"
       y2="1046.1"
       gradientUnits="userSpaceOnUse"
       y1="962.62"
       gradientTransform="matrix(1.15 0 0 1.15 -7.1999 -150.65)"
       x2="48"
       x1="48">
      <stop
         id="stop3624"
         style="stop-color:#d6d6d6"
         offset="0" />
      <stop
         id="stop3626"
         style="stop-color:#eaeaea"
         offset="1" />
    </linearGradient>
    <clipPath
       id="clipPath3009"
       clipPathUnits="userSpaceOnUse">
      <path
         id="path3011"
         style="opacity:.15;fill:#fff"
         d="m-2 956.36h-96v33.562l96 25.687v-59.25z" />
    </clipPath>
    <linearGradient
       inkscape:collect="always"
       xlink:href="#outerBackgroundGradient-09"
       id="linearGradient10847"
       gradientUnits="userSpaceOnUse"
       gradientTransform="matrix(0,-1,1,0,260,412)"
       x1="293"
       y1="76"
       x2="379"
       y2="76" />
    <linearGradient
       id="outerBackgroundGradient-09">
      <stop
         style="stop-color:#3f4d69;stop-opacity:1;"
         offset="0"
         id="stop3864-8-6-08" />
      <stop
         style="stop-color:#5e7094;stop-opacity:1;"
         offset="1"
         id="stop3866-9-1-3" />
    </linearGradient>
    <linearGradient
       y2="76"
       x2="379"
       y1="76"
       x1="293"
       gradientTransform="matrix(0,-1,1,0,70.23729,1340.9701)"
       gradientUnits="userSpaceOnUse"
       id="linearGradient3252"
       xlink:href="#outerBackgroundGradient-09"
       inkscape:collect="always" />
    <linearGradient
       id="linearGradient11642-3"
       y2="1046.1"
       gradientUnits="userSpaceOnUse"
       y1="962.62"
       gradientTransform="matrix(1.15,0,0,1.15,-7.1999,-150.65)"
       x2="48"
       x1="48">
      <stop
         id="stop3624-7"
         style="stop-color:#d6d6d6"
         offset="0" />
      <stop
         id="stop3626-0"
         style="stop-color:#eaeaea"
         offset="1" />
    </linearGradient>
    <linearGradient
       y2="1046.1"
       x2="48"
       y1="962.62"
       x1="48"
       gradientTransform="matrix(1.15,0,0,1.15,-7.1999,-150.65)"
       gradientUnits="userSpaceOnUse"
       id="linearGradient3002"
       xlink:href="#outerBackgroundGradient-09"
       inkscape:collect="always" />
  </defs>
  <metadata
     id="metadata11042">
    <rdf:RDF>
      <cc:Work
         rdf:about="">
        <dc:format>image/svg+xml</dc:format>
        <dc:type
           rdf:resource="http://purl.org/dc/dcmitype/StillImage" />
        <dc:title />
      </cc:Work>
    </rdf:RDF>
  </metadata>
  <g
     id="layer1"
     transform="translate(0 -956.36)">
    <rect
       id="rect3867"
       style="fill:url(#linearGradient3002);fill-opacity:1.0"
       rx="25"
       ry="25"
       height="92"
       width="92"
       y="958.35999"
       x="2" />
    <g
       transform="matrix(0.20041997,0,0,-0.20041997,11.779699,1013.8987)"
       id="g6499"
       style="opacity:0.2;fill:#000000;fill-opacity:1;display:inline;enable-background:new">
      <path
         d="m 45.0078,81.6148 0,-15.9699 14.9934,0 0,-9.9187 -14.9934,0 0,-16.2028 c 0,-3.6621 0.1934,-6.0136 0.5824,-7.0546 0.3868,-1.0391 1.1102,-1.8692 2.1641,-2.4903 1.398,-0.8379 2.9957,-1.2578 4.7965,-1.2578 3.1976,0 6.3801,1.041 9.5453,3.1211 l 0,-9.9648 c -2.7008,-1.2715 -5.1457,-2.1661 -7.3328,-2.6778 -2.1895,-0.5117 -4.5567,-0.7676 -7.1008,-0.7676 -2.8871,0 -5.4406,0.3653 -7.6602,1.0938 -2.2195,0.7305 -4.1121,1.7715 -5.68,3.1191 -1.568,1.3516 -2.6547,2.7871 -3.2594,4.3086 -0.6055,1.5196 -0.9082,3.7246 -0.9082,6.6114 l 0,22.1617 -6.9832,0 0,8.9414 c 2.4816,0.8066 4.6097,1.9617 6.3777,3.4687 1.7707,1.5047 3.1903,3.3133 4.2606,5.4246 1.0718,2.1094 1.8086,4.795 2.2113,8.0539 l 8.9867,0"
         style="fill:#000000;fill-opacity:1;fill-rule:nonzero;stroke:none"
         id="path6501"
         inkscape:connector-curvature="0" />
      <path
         d="m 64.8918,65.6449 21.7437,0.4192 0,-30.2184 c 0,-2.1426 0.1317,-3.5703 0.3961,-4.2832 0.2629,-0.7148 0.7454,-1.2969 1.4442,-1.7461 0.6976,-0.4512 1.5746,-0.6758 2.6297,-0.6758 1.5523,0 3.1976,0.3731 4.9355,1.1172 0.6824,0.3106 2.4985,1.4121 5.448,3.3067 l 0,18.1582 c 0,1.5835 -0.125,2.6695 -0.375,3.2593 -0.25,0.5899 -0.611,1.0157 -1.078,1.2813 -0.4696,0.2617 -1.3758,0.3953 -2.7196,0.3953 l -2.7191,0 0,8.9863 21.8387,0.4192 0,-33.3395 c 0,-1.7383 0.099,-2.832 0.302,-3.2812 0.201,-0.4512 0.527,-0.7754 0.978,-0.9786 0.449,-0.2011 1.529,-0.3027 3.235,-0.3027 l 2.468,0 0,-8.9844 -20.441,-0.5586 0,5.4922 c -2.728,-2.0175 -5.4702,-3.5312 -8.2284,-4.539 -2.7586,-1.0078 -5.5328,-1.5137 -8.3211,-1.5137 -2.2336,0 -4.2859,0.3672 -6.1613,1.0957 -1.8754,0.7285 -3.4488,1.707 -4.7188,2.9336 -1.2711,1.2246 -2.216,2.6601 -2.8355,4.3047 -0.6191,1.6465 -0.9301,3.7558 -0.9301,6.332 l 0,19.1856 c 0,1.7679 -0.1016,2.8863 -0.3039,3.3511 -0.2051,0.4649 -0.5414,0.8145 -1.0086,1.0477 -0.4699,0.2324 -1.4691,0.3496 -3,0.3496 l -2.5785,0 0,8.9863"
         style="fill:#000000;fill-opacity:1;fill-rule:nonzero;stroke:none"
         id="path6503"
         inkscape:connector-curvature="0" />
      <path
         d="m 148.285,66.7621 0,-6.1922 c 2.699,2.0781 5.444,3.6317 8.235,4.6563 2.793,1.0254 5.628,1.5359 8.513,1.5359 1.831,0 3.592,-0.2723 5.281,-0.8152 1.692,-0.543 3.102,-1.25 4.233,-2.1192 1.133,-0.8691 2.164,-2.0488 3.096,-3.5382 3.007,2.298 5.892,3.9503 8.654,4.9601 2.76,1.0078 5.566,1.5125 8.42,1.5125 2.482,0 4.73,-0.45 6.748,-1.3496 2.014,-0.9012 3.652,-2.1191 4.908,-3.657 1.256,-1.5352 2.068,-3.2032 2.441,-5.0051 0.249,-1.116 0.374,-2.7469 0.374,-4.8871 l 0,-19.2754 c 0,-1.584 0.117,-2.6094 0.349,-3.0742 0.233,-0.4649 0.629,-0.8242 1.186,-1.0703 0.402,-0.1875 1.537,-0.2813 3.4,-0.2813 l 2.047,0 0,-8.9844 -27.145,0 0,8.9844 c 2,0 3.262,0.1016 3.786,0.3027 0.523,0.2032 0.908,0.5313 1.154,0.9805 0.244,0.4512 0.369,1.4375 0.369,2.9629 l 0,16.9297 c 0,1.959 -0.133,3.2578 -0.396,3.8941 -0.266,0.6368 -0.78,1.1817 -1.543,1.6328 -0.762,0.4512 -1.674,0.6758 -2.731,0.6758 -1.215,0 -2.523,-0.2726 -3.926,-0.8156 -1.398,-0.5449 -3.47,-1.7328 -6.211,-3.5688 l 0,-18.2363 c 0,-1.8047 0.123,-2.9375 0.369,-3.4043 0.247,-0.4668 0.678,-0.8242 1.293,-1.0722 0.37,-0.1563 1.584,-0.25 3.647,-0.2813 l 0,-8.9844 -25.469,0 0,8.9844 c 2.11,0.0313 3.399,0.1406 3.863,0.3262 0.467,0.1855 0.823,0.5273 1.071,1.0234 0.25,0.4942 0.373,1.625 0.373,3.3926 l 0,15.9434 c 0,2.4472 -0.219,4.0742 -0.653,4.8804 -0.685,1.209 -1.9,1.8125 -3.643,1.8125 -0.872,0 -1.792,-0.1094 -2.757,-0.3261 -0.965,-0.2161 -1.914,-0.5567 -2.85,-1.0215 -0.497,-0.2481 -1.775,-1.0547 -3.828,-2.4176 l -1.076,-0.6973 0,-18.1738 c 0,-1.7363 0.095,-2.8203 0.281,-3.2559 0.186,-0.4316 0.551,-0.789 1.094,-1.0683 0.542,-0.2774 1.482,-0.418 2.817,-0.418 l 1.255,0 0,-8.9844 -27.191,0 0,8.9844 1.816,0 c 1.925,0 3.127,0.1016 3.608,0.3027 0.482,0.2012 0.847,0.5586 1.096,1.0684 0.248,0.5117 0.372,1.6348 0.372,3.3711 l 0,20.9137 -6.892,0 0,8.9863 c 5.693,0.534 10.953,1.8535 15.775,3.9578 l 4.387,0"
         style="fill:#000000;fill-opacity:1;fill-rule:nonzero;stroke:none"
         id="path6505"
         inkscape:connector-curvature="0" />
      <path
         d="m 234.801,52.3281 0,-14.1562 c 0,-2.8535 0.224,-4.8184 0.676,-5.8887 0.449,-1.0703 1.242,-1.9648 2.375,-2.6758 1.132,-0.7148 2.459,-1.0722 3.98,-1.0722 2.576,0 4.625,1.0546 6.147,3.166 1.925,2.6386 2.886,6.2871 2.886,10.9433 0,4.377 -0.822,7.7578 -2.469,10.1485 -1.333,1.9254 -3.087,2.8871 -5.259,2.8871 -1.211,0 -2.508,-0.2781 -3.889,-0.8379 -1.381,-0.5586 -2.863,-1.3965 -4.447,-2.5141 z m 0,35.2008 0,-25.0977 c 2.578,1.6133 4.867,2.7403 6.869,3.377 2.002,0.6367 4.01,0.9539 6.029,0.9539 5.278,0 9.639,-1.9246 13.084,-5.7742 4.004,-4.4688 6.006,-10.4293 6.006,-17.8785 0,-7.543 -2.012,-13.6035 -6.035,-18.1817 -4.024,-4.58 -8.895,-6.8691 -14.611,-6.8691 -2.332,0 -4.569,0.3906 -6.711,1.166 -2.147,0.7734 -4.383,2.0625 -6.713,3.8633 l -2.516,-3.9102 -10.254,0 0,55.4067 -6.799,0 0,8.9855 c 6.129,0.4395 11.821,1.7598 17.079,3.959 l 4.572,0"
         style="fill:#000000;fill-opacity:1;fill-rule:nonzero;stroke:none"
         id="path6507"
         inkscape:connector-curvature="0" />
      <path
         d="m 289.051,87.5289 0,-54.4762 c 0,-1.8339 0.076,-2.9179 0.234,-3.2617 0.215,-0.6191 0.697,-1.0703 1.442,-1.3476 0.466,-0.1875 1.722,-0.2813 3.773,-0.2813 l 1.629,0 0,-8.9844 -28.822,0 0,8.9844 1.769,0 c 1.863,0 3.057,0.1172 3.586,0.3496 0.527,0.2324 0.914,0.6055 1.164,1.1172 0.248,0.5137 0.371,1.6543 0.371,3.4238 l 0,41.5317 -6.89,0 0,8.9855 c 5.556,0.377 11.298,1.6973 17.228,3.959 l 4.516,0"
         style="fill:#000000;fill-opacity:1;fill-rule:nonzero;stroke:none"
         id="path6509"
         inkscape:connector-curvature="0" />
      <path
         d="m 321.225,66.7621 0,-6.7508 c 2.488,2.6063 4.644,4.3836 6.463,5.3301 1.822,0.9473 3.57,1.4207 5.251,1.4207 1.526,0 2.885,-0.3484 4.084,-1.0476 1.198,-0.6973 2.147,-1.6993 2.846,-3.002 0.701,-1.3047 1.053,-2.7012 1.053,-4.1914 0,-1.957 -0.649,-3.7246 -1.938,-5.3086 -1.293,-1.5816 -3.105,-2.3746 -5.439,-2.3746 -0.623,0 -1.176,0.0469 -1.658,0.1406 -0.483,0.0918 -1.5,0.4024 -3.057,0.9317 -0.81,0.248 -1.478,0.371 -2.008,0.371 -0.808,0 -2.146,-0.5117 -4.013,-1.5351 l 0,-18.207 c 0,-1.5528 0.115,-2.5606 0.347,-3.0254 0.235,-0.4649 0.614,-0.8086 1.143,-1.0254 0.527,-0.2168 1.676,-0.3262 3.445,-0.3262 l 2.049,0 0,-8.9844 -28.73,0 0,8.9844 2.392,0 c 1.719,0 2.789,0.0938 3.211,0.2813 0.422,0.1855 0.742,0.5097 0.961,0.9765 0.219,0.4668 0.328,1.5039 0.328,3.1192 l 0,21.3726 -6.892,0 0,8.9395 c 5.06,0.3093 10.322,1.6133 15.785,3.9109 l 4.377,0"
         style="fill:#000000;fill-opacity:1;fill-rule:nonzero;stroke:none"
         id="path6511"
         inkscape:connector-curvature="0" />
      <path
         d="m 343.818,35.7539 c 2.391,0 4.432,-0.8477 6.125,-2.5391 1.692,-1.6914 2.537,-3.7343 2.537,-6.123 0,-2.3906 -0.845,-4.4297 -2.537,-6.123 -1.693,-1.6915 -3.734,-2.5372 -6.125,-2.5372 -2.42,0 -4.476,0.8457 -6.168,2.5372 -1.691,1.6933 -2.537,3.7324 -2.537,6.123 0,2.3887 0.846,4.4316 2.537,6.123 1.692,1.6914 3.748,2.5391 6.168,2.5391"
         style="fill:#000000;fill-opacity:1;fill-rule:nonzero;stroke:none"
         id="path6513"
         inkscape:connector-curvature="0" />
      <path
         d="m 47.6625,18.4316 c 2.5441,0 4.9113,0.2559 7.1008,0.7676 2.1871,0.5117 4.632,1.4063 7.3328,2.6778 l 0,6.0761 c -9.3113,-1.9597 -18.2664,-3.9707 -26.8563,-6.0156 1.3754,-1.0051 2.9543,-1.8176 4.7625,-2.4121 2.2196,-0.7285 4.7731,-1.0938 7.6602,-1.0938"
         style="fill:#000000;fill-opacity:1;fill-rule:nonzero;stroke:none"
         id="path6515"
         inkscape:connector-curvature="0" />
      <path
         d="m 75.5484,22.0879 c 1.27,-1.2266 2.8434,-2.2051 4.7188,-2.9336 1.8754,-0.7285 3.9277,-1.0957 6.1613,-1.0957 2.7883,0 5.5625,0.5059 8.3211,1.5137 2.7582,1.0078 5.5004,2.5215 8.2284,4.539 l 0,-5.4922 20.441,0.5586 0,8.9844 -2.468,0 c -1.706,0 -2.786,0.1016 -3.235,0.3027 -0.451,0.2032 -0.777,0.5274 -0.978,0.9786 -0.203,0.4492 -0.302,1.5429 -0.302,3.2812 l 0,5.3176 c -5.06,-0.8195 -10.039,-1.6606 -14.947,-2.518 l 0,-1.9597 c -2.9495,-1.8946 -4.7656,-2.9961 -5.448,-3.3067 -1.7379,-0.7441 -3.3832,-1.1172 -4.9355,-1.1172 -1.0551,0 -1.9321,0.2246 -2.6297,0.6758 -0.6988,0.4492 -1.1813,1.0313 -1.4442,1.7461 -0.1117,0.302 -0.1988,0.7395 -0.2628,1.2969 -5.0317,-0.9434 -9.9797,-1.9032 -14.8336,-2.8797 0.1468,-1.3645 0.3968,-2.5742 0.7777,-3.5871 0.6195,-1.6446 1.5644,-3.0801 2.8355,-4.3047"
         style="fill:#000000;fill-opacity:1;fill-rule:nonzero;stroke:none"
         id="path6517"
         inkscape:connector-curvature="0" />
      <path
         d="m 134.643,29.5332 c -0.249,-0.5098 -0.614,-0.8672 -1.096,-1.0684 -0.481,-0.2011 -1.683,-0.3027 -3.608,-0.3027 l -1.816,0 0,-8.9844 27.191,0 0,8.9844 -1.255,0 c -1.335,0 -2.275,0.1406 -2.817,0.418 -0.543,0.2793 -0.908,0.6367 -1.094,1.0683 -0.186,0.4356 -0.281,1.5196 -0.281,3.2559 l 0,10.0977 c -5.013,-0.6766 -9.964,-1.3758 -14.852,-2.0938 l 0,-8.0039 c 0,-1.7363 -0.124,-2.8594 -0.372,-3.3711"
         style="fill:#000000;fill-opacity:1;fill-rule:nonzero;stroke:none"
         id="path6519"
         inkscape:connector-curvature="0" />
      <path
         d="m 194.334,32.4082 c 0,-1.5254 -0.125,-2.5117 -0.369,-2.9629 -0.246,-0.4492 -0.631,-0.7773 -1.154,-0.9805 -0.524,-0.2011 -1.786,-0.3027 -3.786,-0.3027 l 0,-8.9844 27.145,0 0,8.9844 -2.047,0 c -1.863,0 -2.998,0.0938 -3.4,0.2813 -0.557,0.2461 -0.953,0.6054 -1.186,1.0703 -0.232,0.4648 -0.349,1.4902 -0.349,3.0742 l 0,17.084 c -4.999,-0.4512 -9.952,-0.9258 -14.854,-1.4219 l 0,-15.8418"
         style="fill:#000000;fill-opacity:1;fill-rule:nonzero;stroke:none"
         id="path6521"
         inkscape:connector-curvature="0" />
      <path
         d="m 164.674,32.9043 c 0,-1.7676 -0.123,-2.8984 -0.373,-3.3926 -0.248,-0.4961 -0.604,-0.8379 -1.071,-1.0234 -0.464,-0.1856 -1.753,-0.2949 -3.863,-0.3262 l 0,-8.9844 25.469,0 0,8.9844 c -2.063,0.0313 -3.277,0.125 -3.647,0.2813 -0.615,0.248 -1.046,0.6054 -1.293,1.0722 -0.246,0.4668 -0.369,1.5996 -0.369,3.4043 l 0,13.75 c -5.006,-0.5625 -9.956,-1.1465 -14.853,-1.7519 l 0,-12.0137"
         style="fill:#000000;fill-opacity:1;fill-rule:nonzero;stroke:none"
         id="path6523"
         inkscape:connector-curvature="0" />
      <path
         d="m 230.203,19.1777 2.516,3.9102 c 2.33,-1.8008 4.566,-3.0899 6.713,-3.8633 2.142,-0.7754 4.379,-1.166 6.711,-1.166 5.716,0 10.587,2.2891 14.611,6.8691 4.023,4.5782 6.035,10.6387 6.035,18.1817 0,3.9082 -0.566,7.3965 -1.668,10.4847 -5.597,-0.2804 -11.143,-0.5929 -16.643,-0.9339 1.589,-2.3829 2.387,-5.7161 2.387,-10.0157 0,-4.6562 -0.961,-8.3047 -2.886,-10.9433 -1.522,-2.1114 -3.571,-3.166 -6.147,-3.166 -1.521,0 -2.848,0.3574 -3.98,1.0722 -1.133,0.711 -1.926,1.6055 -2.375,2.6758 -0.452,1.0703 -0.676,3.0352 -0.676,5.8887 l 0,13.5761 c -4.994,-0.3585 -9.944,-0.7421 -14.852,-1.1464 l 0,-31.4239 10.254,0"
         style="fill:#000000;fill-opacity:1;fill-rule:nonzero;stroke:none"
         id="path6525"
         inkscape:connector-curvature="0" />
      <path
         d="m 273.826,29.6289 c -0.25,-0.5117 -0.637,-0.8848 -1.164,-1.1172 -0.529,-0.2324 -1.723,-0.3496 -3.586,-0.3496 l -1.769,0 0,-8.9844 28.822,0 0,8.9844 -1.629,0 c -2.051,0 -3.307,0.0938 -3.773,0.2813 -0.745,0.2773 -1.227,0.7285 -1.442,1.3476 -0.158,0.3438 -0.234,1.4278 -0.234,3.2617 l 0,21.5391 c -4.986,-0.1664 -9.94,-0.3547 -14.854,-0.5691 l 0,-20.97 c 0,-1.7695 -0.123,-2.9101 -0.371,-3.4238"
         style="fill:#000000;fill-opacity:1;fill-rule:nonzero;stroke:none"
         id="path6527"
         inkscape:connector-curvature="0" />
      <path
         d="m 307.955,53.9117 0,-21.3726 c 0,-1.6153 -0.109,-2.6524 -0.328,-3.1192 -0.219,-0.4668 -0.539,-0.791 -0.961,-0.9765 -0.422,-0.1875 -1.492,-0.2813 -3.211,-0.2813 l -2.392,0 0,-8.9844 28.73,0 0,8.9844 -2.049,0 c -1.769,0 -2.918,0.1094 -3.445,0.3262 -0.529,0.2168 -0.908,0.5605 -1.143,1.0254 -0.232,0.4648 -0.347,1.4726 -0.347,3.0254 l 0,18.207 c 1.867,1.0234 3.205,1.5351 4.013,1.5351 0.53,0 1.198,-0.123 2.008,-0.371 1.557,-0.5293 2.574,-0.8399 3.057,-0.9317 0.482,-0.0937 1.035,-0.1406 1.658,-0.1406 2.334,0 4.146,0.793 5.439,2.3746 0.561,0.6895 0.994,1.4152 1.311,2.1746 -13.29,0.0301 -26.375,-0.1215 -39.232,-0.443 l 0,-1.0324 6.892,0"
         style="fill:#000000;fill-opacity:1;fill-rule:nonzero;stroke:none"
         id="path6529"
         inkscape:connector-curvature="0" />
      <path
         d="m 343.818,18.4316 c 2.391,0 4.432,0.8457 6.125,2.5372 1.692,1.6933 2.537,3.7324 2.537,6.123 0,2.3887 -0.845,4.4316 -2.537,6.123 -1.693,1.6914 -3.734,2.5391 -6.125,2.5391 -2.42,0 -4.476,-0.8477 -6.168,-2.5391 -1.691,-1.6914 -2.537,-3.7343 -2.537,-6.123 0,-2.3906 0.846,-4.4297 2.537,-6.123 1.692,-1.6915 3.748,-2.5372 6.168,-2.5372"
         style="fill:#000000;fill-opacity:1;fill-rule:nonzero;stroke:none"
         id="path6531"
         inkscape:connector-curvature="0" />
    </g>
    <g
       style="display:inline;enable-background:new"
       id="g4073"
       transform="matrix(0.20041997,0,0,-0.20041997,11.779699,1012.8987)">
      <path
         inkscape:connector-curvature="0"
         id="path4075"
         style="fill:#f1f3f7;fill-opacity:1;fill-rule:nonzero;stroke:none"
         d="m 45.0078,81.6148 0,-15.9699 14.9934,0 0,-9.9187 -14.9934,0 0,-16.2028 c 0,-3.6621 0.1934,-6.0136 0.5824,-7.0546 0.3868,-1.0391 1.1102,-1.8692 2.1641,-2.4903 1.398,-0.8379 2.9957,-1.2578 4.7965,-1.2578 3.1976,0 6.3801,1.041 9.5453,3.1211 l 0,-9.9648 c -2.7008,-1.2715 -5.1457,-2.1661 -7.3328,-2.6778 -2.1895,-0.5117 -4.5567,-0.7676 -7.1008,-0.7676 -2.8871,0 -5.4406,0.3653 -7.6602,1.0938 -2.2195,0.7305 -4.1121,1.7715 -5.68,3.1191 -1.568,1.3516 -2.6547,2.7871 -3.2594,4.3086 -0.6055,1.5196 -0.9082,3.7246 -0.9082,6.6114 l 0,22.1617 -6.9832,0 0,8.9414 c 2.4816,0.8066 4.6097,1.9617 6.3777,3.4687 1.7707,1.5047 3.1903,3.3133 4.2606,5.4246 1.0718,2.1094 1.8086,4.795 2.2113,8.0539 l 8.9867,0" />
      <path
         inkscape:connector-curvature="0"
         id="path4077"
         style="fill:#f1f3f7;fill-opacity:1;fill-rule:nonzero;stroke:none"
         d="m 64.8918,65.6449 21.7437,0.4192 0,-30.2184 c 0,-2.1426 0.1317,-3.5703 0.3961,-4.2832 0.2629,-0.7148 0.7454,-1.2969 1.4442,-1.7461 0.6976,-0.4512 1.5746,-0.6758 2.6297,-0.6758 1.5523,0 3.1976,0.3731 4.9355,1.1172 0.6824,0.3106 2.4985,1.4121 5.448,3.3067 l 0,18.1582 c 0,1.5835 -0.125,2.6695 -0.375,3.2593 -0.25,0.5899 -0.611,1.0157 -1.078,1.2813 -0.4696,0.2617 -1.3758,0.3953 -2.7196,0.3953 l -2.7191,0 0,8.9863 21.8387,0.4192 0,-33.3395 c 0,-1.7383 0.099,-2.832 0.302,-3.2812 0.201,-0.4512 0.527,-0.7754 0.978,-0.9786 0.449,-0.2011 1.529,-0.3027 3.235,-0.3027 l 2.468,0 0,-8.9844 -20.441,-0.5586 0,5.4922 c -2.728,-2.0175 -5.4702,-3.5312 -8.2284,-4.539 -2.7586,-1.0078 -5.5328,-1.5137 -8.3211,-1.5137 -2.2336,0 -4.2859,0.3672 -6.1613,1.0957 -1.8754,0.7285 -3.4488,1.707 -4.7188,2.9336 -1.2711,1.2246 -2.216,2.6601 -2.8355,4.3047 -0.6191,1.6465 -0.9301,3.7558 -0.9301,6.332 l 0,19.1856 c 0,1.7679 -0.1016,2.8863 -0.3039,3.3511 -0.2051,0.4649 -0.5414,0.8145 -1.0086,1.0477 -0.4699,0.2324 -1.4691,0.3496 -3,0.3496 l -2.5785,0 0,8.9863" />
      <path
         inkscape:connector-curvature="0"
         id="path4079"
         style="fill:#f1f3f7;fill-opacity:1;fill-rule:nonzero;stroke:none"
         d="m 148.285,66.7621 0,-6.1922 c 2.699,2.0781 5.444,3.6317 8.235,4.6563 2.793,1.0254 5.628,1.5359 8.513,1.5359 1.831,0 3.592,-0.2723 5.281,-0.8152 1.692,-0.543 3.102,-1.25 4.233,-2.1192 1.133,-0.8691 2.164,-2.0488 3.096,-3.5382 3.007,2.298 5.892,3.9503 8.654,4.9601 2.76,1.0078 5.566,1.5125 8.42,1.5125 2.482,0 4.73,-0.45 6.748,-1.3496 2.014,-0.9012 3.652,-2.1191 4.908,-3.657 1.256,-1.5352 2.068,-3.2032 2.441,-5.0051 0.249,-1.116 0.374,-2.7469 0.374,-4.8871 l 0,-19.2754 c 0,-1.584 0.117,-2.6094 0.349,-3.0742 0.233,-0.4649 0.629,-0.8242 1.186,-1.0703 0.402,-0.1875 1.537,-0.2813 3.4,-0.2813 l 2.047,0 0,-8.9844 -27.145,0 0,8.9844 c 2,0 3.262,0.1016 3.786,0.3027 0.523,0.2032 0.908,0.5313 1.154,0.9805 0.244,0.4512 0.369,1.4375 0.369,2.9629 l 0,16.9297 c 0,1.959 -0.133,3.2578 -0.396,3.8941 -0.266,0.6368 -0.78,1.1817 -1.543,1.6328 -0.762,0.4512 -1.674,0.6758 -2.731,0.6758 -1.215,0 -2.523,-0.2726 -3.926,-0.8156 -1.398,-0.5449 -3.47,-1.7328 -6.211,-3.5688 l 0,-18.2363 c 0,-1.8047 0.123,-2.9375 0.369,-3.4043 0.247,-0.4668 0.678,-0.8242 1.293,-1.0722 0.37,-0.1563 1.584,-0.25 3.647,-0.2813 l 0,-8.9844 -25.469,0 0,8.9844 c 2.11,0.0313 3.399,0.1406 3.863,0.3262 0.467,0.1855 0.823,0.5273 1.071,1.0234 0.25,0.4942 0.373,1.625 0.373,3.3926 l 0,15.9434 c 0,2.4472 -0.219,4.0742 -0.653,4.8804 -0.685,1.209 -1.9,1.8125 -3.643,1.8125 -0.872,0 -1.792,-0.1094 -2.757,-0.3261 -0.965,-0.2161 -1.914,-0.5567 -2.85,-1.0215 -0.497,-0.2481 -1.775,-1.0547 -3.828,-2.4176 l -1.076,-0.6973 0,-18.1738 c 0,-1.7363 0.095,-2.8203 0.281,-3.2559 0.186,-0.4316 0.551,-0.789 1.094,-1.0683 0.542,-0.2774 1.482,-0.418 2.817,-0.418 l 1.255,0 0,-8.9844 -27.191,0 0,8.9844 1.816,0 c 1.925,0 3.127,0.1016 3.608,0.3027 0.482,0.2012 0.847,0.5586 1.096,1.0684 0.248,0.5117 0.372,1.6348 0.372,3.3711 l 0,20.9137 -6.892,0 0,8.9863 c 5.693,0.534 10.953,1.8535 15.775,3.9578 l 4.387,0" />
      <path
         inkscape:connector-curvature="0"
         id="path4081"
         style="fill:#f1f3f7;fill-opacity:1;fill-rule:nonzero;stroke:none"
         d="m 234.801,52.3281 0,-14.1562 c 0,-2.8535 0.224,-4.8184 0.676,-5.8887 0.449,-1.0703 1.242,-1.9648 2.375,-2.6758 1.132,-0.7148 2.459,-1.0722 3.98,-1.0722 2.576,0 4.625,1.0546 6.147,3.166 1.925,2.6386 2.886,6.2871 2.886,10.9433 0,4.377 -0.822,7.7578 -2.469,10.1485 -1.333,1.9254 -3.087,2.8871 -5.259,2.8871 -1.211,0 -2.508,-0.2781 -3.889,-0.8379 -1.381,-0.5586 -2.863,-1.3965 -4.447,-2.5141 z m 0,35.2008 0,-25.0977 c 2.578,1.6133 4.867,2.7403 6.869,3.377 2.002,0.6367 4.01,0.9539 6.029,0.9539 5.278,0 9.639,-1.9246 13.084,-5.7742 4.004,-4.4688 6.006,-10.4293 6.006,-17.8785 0,-7.543 -2.012,-13.6035 -6.035,-18.1817 -4.024,-4.58 -8.895,-6.8691 -14.611,-6.8691 -2.332,0 -4.569,0.3906 -6.711,1.166 -2.147,0.7734 -4.383,2.0625 -6.713,3.8633 l -2.516,-3.9102 -10.254,0 0,55.4067 -6.799,0 0,8.9855 c 6.129,0.4395 11.821,1.7598 17.079,3.959 l 4.572,0" />
      <path
         inkscape:connector-curvature="0"
         id="path4083"
         style="fill:#f1f3f7;fill-opacity:1;fill-rule:nonzero;stroke:none"
         d="m 289.051,87.5289 0,-54.4762 c 0,-1.8339 0.076,-2.9179 0.234,-3.2617 0.215,-0.6191 0.697,-1.0703 1.442,-1.3476 0.466,-0.1875 1.722,-0.2813 3.773,-0.2813 l 1.629,0 0,-8.9844 -28.822,0 0,8.9844 1.769,0 c 1.863,0 3.057,0.1172 3.586,0.3496 0.527,0.2324 0.914,0.6055 1.164,1.1172 0.248,0.5137 0.371,1.6543 0.371,3.4238 l 0,41.5317 -6.89,0 0,8.9855 c 5.556,0.377 11.298,1.6973 17.228,3.959 l 4.516,0" />
      <path
         inkscape:connector-curvature="0"
         id="path4085-1"
         style="fill:#f1f3f7;fill-opacity:1;fill-rule:nonzero;stroke:none"
         d="m 321.225,66.7621 0,-6.7508 c 2.488,2.6063 4.644,4.3836 6.463,5.3301 1.822,0.9473 3.57,1.4207 5.251,1.4207 1.526,0 2.885,-0.3484 4.084,-1.0476 1.198,-0.6973 2.147,-1.6993 2.846,-3.002 0.701,-1.3047 1.053,-2.7012 1.053,-4.1914 0,-1.957 -0.649,-3.7246 -1.938,-5.3086 -1.293,-1.5816 -3.105,-2.3746 -5.439,-2.3746 -0.623,0 -1.176,0.0469 -1.658,0.1406 -0.483,0.0918 -1.5,0.4024 -3.057,0.9317 -0.81,0.248 -1.478,0.371 -2.008,0.371 -0.808,0 -2.146,-0.5117 -4.013,-1.5351 l 0,-18.207 c 0,-1.5528 0.115,-2.5606 0.347,-3.0254 0.235,-0.4649 0.614,-0.8086 1.143,-1.0254 0.527,-0.2168 1.676,-0.3262 3.445,-0.3262 l 2.049,0 0,-8.9844 -28.73,0 0,8.9844 2.392,0 c 1.719,0 2.789,0.0938 3.211,0.2813 0.422,0.1855 0.742,0.5097 0.961,0.9765 0.219,0.4668 0.328,1.5039 0.328,3.1192 l 0,21.3726 -6.892,0 0,8.9395 c 5.06,0.3093 10.322,1.6133 15.785,3.9109 l 4.377,0" />
      <path
         inkscape:connector-curvature="0"
         id="path4087-9"
         style="fill:#f1f3f7;fill-opacity:1;fill-rule:nonzero;stroke:none"
         d="m 343.818,35.7539 c 2.391,0 4.432,-0.8477 6.125,-2.5391 1.692,-1.6914 2.537,-3.7343 2.537,-6.123 0,-2.3906 -0.845,-4.4297 -2.537,-6.123 -1.693,-1.6915 -3.734,-2.5372 -6.125,-2.5372 -2.42,0 -4.476,0.8457 -6.168,2.5372 -1.691,1.6933 -2.537,3.7324 -2.537,6.123 0,2.3887 0.846,4.4316 2.537,6.123 1.692,1.6914 3.748,2.5391 6.168,2.5391" />
      <path
         inkscape:connector-curvature="0"
         id="path4089-0"
         style="fill:#e3e3e7;fill-opacity:1;fill-rule:nonzero;stroke:none"
         d="m 47.6625,18.4316 c 2.5441,0 4.9113,0.2559 7.1008,0.7676 2.1871,0.5117 4.632,1.4063 7.3328,2.6778 l 0,6.0761 c -9.3113,-1.9597 -18.2664,-3.9707 -26.8563,-6.0156 1.3754,-1.0051 2.9543,-1.8176 4.7625,-2.4121 2.2196,-0.7285 4.7731,-1.0938 7.6602,-1.0938" />
      <path
         inkscape:connector-curvature="0"
         id="path4091-0"
         style="fill:#e3e3e7;fill-opacity:1;fill-rule:nonzero;stroke:none"
         d="m 75.5484,22.0879 c 1.27,-1.2266 2.8434,-2.2051 4.7188,-2.9336 1.8754,-0.7285 3.9277,-1.0957 6.1613,-1.0957 2.7883,0 5.5625,0.5059 8.3211,1.5137 2.7582,1.0078 5.5004,2.5215 8.2284,4.539 l 0,-5.4922 20.441,0.5586 0,8.9844 -2.468,0 c -1.706,0 -2.786,0.1016 -3.235,0.3027 -0.451,0.2032 -0.777,0.5274 -0.978,0.9786 -0.203,0.4492 -0.302,1.5429 -0.302,3.2812 l 0,5.3176 c -5.06,-0.8195 -10.039,-1.6606 -14.947,-2.518 l 0,-1.9597 c -2.9495,-1.8946 -4.7656,-2.9961 -5.448,-3.3067 -1.7379,-0.7441 -3.3832,-1.1172 -4.9355,-1.1172 -1.0551,0 -1.9321,0.2246 -2.6297,0.6758 -0.6988,0.4492 -1.1813,1.0313 -1.4442,1.7461 -0.1117,0.302 -0.1988,0.7395 -0.2628,1.2969 -5.0317,-0.9434 -9.9797,-1.9032 -14.8336,-2.8797 0.1468,-1.3645 0.3968,-2.5742 0.7777,-3.5871 0.6195,-1.6446 1.5644,-3.0801 2.8355,-4.3047" />
      <path
         inkscape:connector-curvature="0"
         id="path4093-8"
         style="fill:#e3e3e7;fill-opacity:1;fill-rule:nonzero;stroke:none"
         d="m 134.643,29.5332 c -0.249,-0.5098 -0.614,-0.8672 -1.096,-1.0684 -0.481,-0.2011 -1.683,-0.3027 -3.608,-0.3027 l -1.816,0 0,-8.9844 27.191,0 0,8.9844 -1.255,0 c -1.335,0 -2.275,0.1406 -2.817,0.418 -0.543,0.2793 -0.908,0.6367 -1.094,1.0683 -0.186,0.4356 -0.281,1.5196 -0.281,3.2559 l 0,10.0977 c -5.013,-0.6766 -9.964,-1.3758 -14.852,-2.0938 l 0,-8.0039 c 0,-1.7363 -0.124,-2.8594 -0.372,-3.3711" />
      <path
         inkscape:connector-curvature="0"
         id="path4095-1"
         style="fill:#e3e3e7;fill-opacity:1;fill-rule:nonzero;stroke:none"
         d="m 194.334,32.4082 c 0,-1.5254 -0.125,-2.5117 -0.369,-2.9629 -0.246,-0.4492 -0.631,-0.7773 -1.154,-0.9805 -0.524,-0.2011 -1.786,-0.3027 -3.786,-0.3027 l 0,-8.9844 27.145,0 0,8.9844 -2.047,0 c -1.863,0 -2.998,0.0938 -3.4,0.2813 -0.557,0.2461 -0.953,0.6054 -1.186,1.0703 -0.232,0.4648 -0.349,1.4902 -0.349,3.0742 l 0,17.084 c -4.999,-0.4512 -9.952,-0.9258 -14.854,-1.4219 l 0,-15.8418" />
      <path
         inkscape:connector-curvature="0"
         id="path4097-3"
         style="fill:#e3e3e7;fill-opacity:1;fill-rule:nonzero;stroke:none"
         d="m 164.674,32.9043 c 0,-1.7676 -0.123,-2.8984 -0.373,-3.3926 -0.248,-0.4961 -0.604,-0.8379 -1.071,-1.0234 -0.464,-0.1856 -1.753,-0.2949 -3.863,-0.3262 l 0,-8.9844 25.469,0 0,8.9844 c -2.063,0.0313 -3.277,0.125 -3.647,0.2813 -0.615,0.248 -1.046,0.6054 -1.293,1.0722 -0.246,0.4668 -0.369,1.5996 -0.369,3.4043 l 0,13.75 c -5.006,-0.5625 -9.956,-1.1465 -14.853,-1.7519 l 0,-12.0137" />
      <path
         inkscape:connector-curvature="0"
         id="path4099"
         style="fill:#e3e3e7;fill-opacity:1;fill-rule:nonzero;stroke:none"
         d="m 230.203,19.1777 2.516,3.9102 c 2.33,-1.8008 4.566,-3.0899 6.713,-3.8633 2.142,-0.7754 4.379,-1.166 6.711,-1.166 5.716,0 10.587,2.2891 14.611,6.8691 4.023,4.5782 6.035,10.6387 6.035,18.1817 0,3.9082 -0.566,7.3965 -1.668,10.4847 -5.597,-0.2804 -11.143,-0.5929 -16.643,-0.9339 1.589,-2.3829 2.387,-5.7161 2.387,-10.0157 0,-4.6562 -0.961,-8.3047 -2.886,-10.9433 -1.522,-2.1114 -3.571,-3.166 -6.147,-3.166 -1.521,0 -2.848,0.3574 -3.98,1.0722 -1.133,0.711 -1.926,1.6055 -2.375,2.6758 -0.452,1.0703 -0.676,3.0352 -0.676,5.8887 l 0,13.5761 c -4.994,-0.3585 -9.944,-0.7421 -14.852,-1.1464 l 0,-31.4239 10.254,0" />
      <path
         inkscape:connector-curvature="0"
         id="path4101"
         style="fill:#e3e3e7;fill-opacity:1;fill-rule:nonzero;stroke:none"
         d="m 273.826,29.6289 c -0.25,-0.5117 -0.637,-0.8848 -1.164,-1.1172 -0.529,-0.2324 -1.723,-0.3496 -3.586,-0.3496 l -1.769,0 0,-8.9844 28.822,0 0,8.9844 -1.629,0 c -2.051,0 -3.307,0.0938 -3.773,0.2813 -0.745,0.2773 -1.227,0.7285 -1.442,1.3476 -0.158,0.3438 -0.234,1.4278 -0.234,3.2617 l 0,21.5391 c -4.986,-0.1664 -9.94,-0.3547 -14.854,-0.5691 l 0,-20.97 c 0,-1.7695 -0.123,-2.9101 -0.371,-3.4238" />
      <path
         inkscape:connector-curvature="0"
         id="path4103"
         style="fill:#e3e3e7;fill-opacity:1;fill-rule:nonzero;stroke:none"
         d="m 307.955,53.9117 0,-21.3726 c 0,-1.6153 -0.109,-2.6524 -0.328,-3.1192 -0.219,-0.4668 -0.539,-0.791 -0.961,-0.9765 -0.422,-0.1875 -1.492,-0.2813 -3.211,-0.2813 l -2.392,0 0,-8.9844 28.73,0 0,8.9844 -2.049,0 c -1.769,0 -2.918,0.1094 -3.445,0.3262 -0.529,0.2168 -0.908,0.5605 -1.143,1.0254 -0.232,0.4648 -0.347,1.4726 -0.347,3.0254 l 0,18.207 c 1.867,1.0234 3.205,1.5351 4.013,1.5351 0.53,0 1.198,-0.123 2.008,-0.371 1.557,-0.5293 2.574,-0.8399 3.057,-0.9317 0.482,-0.0937 1.035,-0.1406 1.658,-0.1406 2.334,0 4.146,0.793 5.439,2.3746 0.561,0.6895 0.994,1.4152 1.311,2.1746 -13.29,0.0301 -26.375,-0.1215 -39.232,-0.443 l 0,-1.0324 6.892,0" />
      <path
         inkscape:connector-curvature="0"
         id="path4105"
         style="fill:#e3e3e7;fill-opacity:1;fill-rule:nonzero;stroke:none"
         d="m 343.818,18.4316 c 2.391,0 4.432,0.8457 6.125,2.5372 1.692,1.6933 2.537,3.7324 2.537,6.123 0,2.3887 -0.845,4.4316 -2.537,6.123 -1.693,1.6914 -3.734,2.5391 -6.125,2.5391 -2.42,0 -4.476,-0.8477 -6.168,-2.5391 -1.691,-1.6914 -2.537,-3.7343 -2.537,-6.123 0,-2.3906 0.846,-4.4297 2.537,-6.123 1.692,-1.6915 3.748,-2.5372 6.168,-2.5372" />
    </g>
  </g>
</svg>
