<?xml version="1.0" encoding="UTF-8" standalone="no"?>
<!-- Created with Inkscape (http://www.inkscape.org/) -->

<svg
   xmlns:dc="http://purl.org/dc/elements/1.1/"
   xmlns:cc="http://creativecommons.org/ns#"
   xmlns:rdf="http://www.w3.org/1999/02/22-rdf-syntax-ns#"
   xmlns:svg="http://www.w3.org/2000/svg"
   xmlns="http://www.w3.org/2000/svg"
   xmlns:xlink="http://www.w3.org/1999/xlink"
   xmlns:sodipodi="http://sodipodi.sourceforge.net/DTD/sodipodi-0.dtd"
   xmlns:inkscape="http://www.inkscape.org/namespaces/inkscape"
   id="svg11037"
   height="96"
   width="96"
   version="1.1"
   inkscape:version="0.48.5 r10040"
   sodipodi:docname="wordpress.svg">
  <sodipodi:namedview
     pagecolor="#ffffff"
     bordercolor="#666666"
     borderopacity="1"
     objecttolerance="10"
     gridtolerance="10"
     guidetolerance="10"
     inkscape:pageopacity="0"
     inkscape:pageshadow="2"
     inkscape:window-width="1366"
     inkscape:window-height="713"
     id="namedview15"
     showgrid="false"
     inkscape:zoom="4.9166666"
     inkscape:cx="83.18388"
     inkscape:cy="44.296058"
     inkscape:window-x="0"
     inkscape:window-y="24"
     inkscape:window-maximized="1"
     inkscape:current-layer="layer4" />
  <defs
     id="defs11039">
    <linearGradient
       id="linearGradient11642"
       y2="1046.1"
       gradientUnits="userSpaceOnUse"
       y1="962.62"
       gradientTransform="matrix(1.15,0,0,1.15,-7.1999,-150.65)"
       x2="48"
       x1="48"
       xlink:href="#outerBackgroundGradient-6">
      <stop
         id="stop3624"
         style="stop-color:#d6d6d6"
         offset="0" />
      <stop
         id="stop3626"
         style="stop-color:#eaeaea"
         offset="1" />
    </linearGradient>
    <clipPath
       id="clipPath3009"
       clipPathUnits="userSpaceOnUse">
      <path
         id="path3011"
         style="opacity:.15;fill:#fff"
         d="m-2 956.36h-96v33.562l96 25.687v-59.25z" />
    </clipPath>
    <linearGradient
       id="linearGradient2928"
       y2="12"
       gradientUnits="userSpaceOnUse"
       x2="48"
       y1="84"
       x1="48">
      <stop
         id="stop4064"
         style="stop-color:#dfdfdf"
         offset="0" />
      <stop
         id="stop4066"
         style="stop-color:#fff"
         offset="1" />
    </linearGradient>
    <linearGradient
       inkscape:collect="always"
       xlink:href="#outerBackgroundGradient-6"
       id="linearGradient10847"
       gradientUnits="userSpaceOnUse"
       gradientTransform="matrix(0,-1,1,0,260,412)"
       x1="293"
       y1="76"
       x2="379"
       y2="76" />
    <linearGradient
       id="outerBackgroundGradient-6">
      <stop
         style="stop-color:#21759b;stop-opacity:1;"
         offset="0"
         id="stop3864-8-6-0" />
      <stop
         style="stop-color:#478aa9;stop-opacity:1;"
         offset="1"
         id="stop3866-9-1-1" />
    </linearGradient>
    <linearGradient
       y2="76"
       x2="379"
       y1="76"
       x1="293"
       gradientTransform="matrix(0,-1,1,0,67.796612,1344.6312)"
       gradientUnits="userSpaceOnUse"
       id="linearGradient3148"
       xlink:href="#outerBackgroundGradient-6"
       inkscape:collect="always" />
    <linearGradient
       inkscape:collect="always"
       xlink:href="#outerBackgroundGradient-6"
       id="linearGradient3817"
       x1="2"
       y1="1004.36"
       x2="94"
       y2="1004.36"
       gradientUnits="userSpaceOnUse" />
    <linearGradient
       inkscape:collect="always"
       xlink:href="#outerBackgroundGradient-6-0"
       id="linearGradient10847-7"
       gradientUnits="userSpaceOnUse"
       gradientTransform="matrix(0,-1,1,0,260,412)"
       x1="293"
       y1="76"
       x2="379"
       y2="76" />
    <linearGradient
       id="outerBackgroundGradient-6-0">
      <stop
         style="stop-color:#21759b;stop-opacity:1;"
         offset="0"
         id="stop3864-8-6-0-2" />
      <stop
         style="stop-color:#478aa9;stop-opacity:1;"
         offset="1"
         id="stop3866-9-1-1-0" />
    </linearGradient>
    <linearGradient
       y2="76"
       x2="379"
       y1="76"
       x1="293"
       gradientTransform="matrix(0,-1,1,0,68.610171,1334.0549)"
       gradientUnits="userSpaceOnUse"
       id="linearGradient3165"
       xlink:href="#outerBackgroundGradient-6-0"
       inkscape:collect="always" />
    <linearGradient
       id="linearGradient11642-7"
       y2="1046.1"
       gradientUnits="userSpaceOnUse"
       y1="962.62"
       gradientTransform="matrix(1.15,0,0,1.15,-7.1999,-150.65)"
       x2="48"
       x1="48">
      <stop
         id="stop3624-8"
         style="stop-color:#d6d6d6"
         offset="0" />
      <stop
         id="stop3626-3"
         style="stop-color:#eaeaea"
         offset="1" />
    </linearGradient>
    <linearGradient
       y2="1046.1"
       x2="48"
       y1="962.62"
       x1="48"
       gradientTransform="matrix(1.15,0,0,1.15,-7.1999,-150.65)"
       gradientUnits="userSpaceOnUse"
       id="linearGradient3034"
       xlink:href="#outerBackgroundGradient-6-0"
       inkscape:collect="always" />
  </defs>
  <metadata
     id="metadata11042">
    <rdf:RDF>
      <cc:Work
         rdf:about="">
        <dc:format>image/svg+xml</dc:format>
        <dc:type
           rdf:resource="http://purl.org/dc/dcmitype/StillImage" />
        <dc:title></dc:title>
      </cc:Work>
    </rdf:RDF>
  </metadata>
  <g
     id="layer1"
     transform="translate(0 -956.36)">
    <rect
       id="rect3867"
       style="fill:url(#linearGradient3034);fill-opacity:1.0"
       rx="25"
       ry="25"
       height="92"
       width="92"
       y="958.35999"
       x="2" />
    <g
       transform="translate(0,956.36)"
       id="layer4">
      <path
         inkscape:connector-curvature="0"
         id="path4048"
         style="fill:#ecf0f1"
         d="M 47.989,12 C 28.141,12 12,28.162 12,48.011 12,67.86 28.141,84 47.989,84 67.839,84 84,67.86 84,48.011 84,28.162 67.839,12 47.989,12 z m 0,3.6335 c 8.4263,0 16.108,3.2243 21.866,8.4998 -0.13928,-0.0087 -0.26732,-0.02163 -0.41093,-0.02163 -3.1793,0 -5.4503,2.7779 -5.4503,5.7531 0,2.6672 1.5391,4.9243 3.1793,7.5915 1.2311,2.155 2.6819,4.9096 2.6819,8.9108 0,2.7693 -0.82533,6.2626 -2.4656,10.468 l -3.244,10.793 -11.679,-34.8 c 1.9483,-0.10208 3.6984,-0.30279 3.6984,-0.30279 1.7441,-0.20676 1.5278,-2.7623 -0.21628,-2.6603 0,0 -5.2236,0.41093 -8.608,0.41093 -3.1802,0 -8.5431,-0.41093 -8.5431,-0.41093 -1.745,-0.10208 -1.9396,2.5573 -0.19465,2.6603 0,0 1.6515,0.20071 3.3956,0.30279 l 5.04,13.82 -7.094,21.239 -11.766,-35.059 c 1.95,-0.10208 3.6984,-0.30279 3.6984,-0.30279 1.7424,-0.20676 1.5278,-2.7623 -0.21628,-2.6603 0,0 -5.2453,0.41093 -8.6296,0.41093 -0.60732,0 -1.3167,-0.01903 -2.0763,-0.04326 5.788,-8.785 15.728,-14.598 27.035,-14.598 z m 28.419,16.848 c 2.5253,4.6094 3.9579,9.9022 3.9579,15.529 0,11.94 -6.4694,22.356 -16.091,27.965 l 9.884,-28.571 c 1.847,-4.6172 2.4656,-8.3095 2.4656,-11.593 0,-1.1913 -0.077,-2.3004 -0.21628,-3.3307 z m -57.963,2.357 15.421,42.305 c -10.797,-5.245 -18.232,-16.322 -18.232,-29.133 0,-4.6924 1.0165,-9.1461 2.8117,-13.172 z m 30.128,16.005 9.9489,27.251 c 0.06575,0.16005 0.12977,0.29415 0.21628,0.43257 -3.3636,1.1844 -6.9798,1.8384 -10.749,1.8384 -3.1759,0 -6.2272,-0.46631 -9.1271,-1.3193 l 9.711,-28.203 z" />
    </g>
  </g>
</svg>
